<svg width="172" height="129" viewBox="0 0 172 129" fill="none" xmlns="http://www.w3.org/2000/svg">
<path d="M-6 44.5C3.16667 35.8334 29.4 20.2 61 27C71.5 16.5 87 0.500024 130.5 4.00002C136.1 27.2 158.5 99.3333 169 132.5" stroke="white" stroke-width="6"/>
<path d="M83 47C92.1667 38.3333 100.5 32 123.5 33.5" stroke="white" stroke-width="6"/>
<path d="M89 64.7205C98.1667 56.0539 106.5 49.7205 129.5 51.2205" stroke="white" stroke-width="6"/>
<path d="M95 85.7205C104.167 77.0539 112.5 70.7205 135.5 72.2205" stroke="white" stroke-width="6"/>
<path d="M65.5 43L92.5 135.5" stroke="white" stroke-width="6"/>
<path d="M150.5 86L130.5 23L118 21L138 88L150.5 86Z" fill="#528CBE"/>
<path d="M102.5 99L82.5 36L70 34L90 101L102.5 99Z" fill="#528CBE"/>
</svg>
