<svg width="112" height="132" viewBox="0 0 112 132" fill="none" xmlns="http://www.w3.org/2000/svg">
<path d="M32.2598 136.896C39.3931 96.1049 2.87289 84.7442 5.99061 51.4415C9.02378 19.0419 35.3654 5.85606 58.6219 5.56103C92.5764 5.13029 109.802 43.6581 97.4023 71.3851C87.5212 93.4799 67.1758 106.175 65.1723 139.378" stroke="white" stroke-width="6"/>
<path d="M26.0202 124.512L78.2058 114.616" stroke="white" stroke-width="6"/>
<path d="M26.6632 138.033L73.8855 128.744" stroke="white" stroke-width="6"/>
<path d="M50.172 119.549C53.2618 104.033 51.1549 81.6673 35.1145 65.0873C24.6883 54.3103 29.7892 40.5969 40.2241 38.0472C50.659 35.4976 63.7975 55.0981 52.1067 58.8423C40.4159 62.5864 53.7164 29.4984 67.7139 32.7846C93.1238 38.7499 51.7274 105.651 50.172 119.549Z" stroke="white" stroke-width="6"/>
</svg>
