<svg width="129" height="95" viewBox="0 0 129 95" fill="none" xmlns="http://www.w3.org/2000/svg">
<path d="M0.5 84.5C63 84.5 89.5 54 103 6" stroke="white" stroke-width="6"/>
<path d="M51 95L51 91" stroke="white" stroke-width="6"/>
<path d="M77 95L77 78" stroke="white" stroke-width="6"/>
<path d="M101 95L101 52" stroke="white" stroke-width="6"/>
<path d="M103.876 2.71741L106.868 2.50841L101.467 0.929196L103.876 2.71741ZM101.467 0.929196C96.2559 7.94868 87.652 17.6422 78.8143 24.0045C74.3825 27.1949 70.1108 29.3866 66.3373 30.1293C62.6933 30.8466 59.6486 30.2089 57.1067 27.868L53.0421 32.2816C57.2693 36.1745 62.381 37.0232 67.4961 36.0164C72.4817 35.035 77.5718 32.292 82.3198 28.8739C91.8417 22.019 100.869 11.8001 106.285 4.50563L101.467 0.929196ZM100.883 2.92641C101.553 12.5226 103.547 26.437 107.444 36.7709C109.364 41.8638 111.925 46.584 115.434 49.2909C117.259 50.6982 119.406 51.6102 121.837 51.6512C124.25 51.692 126.637 50.8701 128.954 49.3526L125.667 44.333C124.092 45.3645 122.869 45.6678 121.938 45.6521C121.026 45.6367 120.098 45.3105 119.099 44.5399C116.961 42.8911 114.884 39.4972 113.058 34.6538C109.461 25.1152 107.522 11.869 106.868 2.50841L100.883 2.92641Z" fill="white"/>
</svg>
