<svg width="13" height="12" viewBox="0 0 13 12" fill="none" xmlns="http://www.w3.org/2000/svg">
<path d="M2.0863 11.3481C1.82819 11.6072 1.40877 11.6077 1.15016 11.349V11.349C0.891553 11.0904 0.89196 10.671 1.15107 10.4129L11.1928 0.410156L12.0891 1.30645L2.0863 11.3481Z" fill="black"/>
<path d="M12.3335 8.10676C12.3335 8.48927 12.0234 8.79935 11.6409 8.79935V8.79935C11.2584 8.79935 10.9483 8.48927 10.9483 8.10676V2.75922C10.9483 2.09205 10.4075 1.5512 9.74032 1.5512H4.39279C4.01028 1.5512 3.7002 1.24111 3.7002 0.858607V0.858607C3.7002 0.476099 4.01028 0.166016 4.39279 0.166016H10.8946C11.6893 0.166016 12.3335 0.810228 12.3335 1.6049V8.10676Z" fill="black"/>
</svg>
