<svg width="34" height="34" viewBox="0 0 34 34" fill="none" xmlns="http://www.w3.org/2000/svg">
<circle cx="17" cy="17" r="16.5" stroke="#999999"/>
<path d="M8.90248 12.256L6.88648 13.838C6.78848 13.908 6.77448 13.978 6.77448 14.076V14.902C6.77448 15.014 6.85848 15.056 6.94248 14.986L8.94448 13.432C9.02848 13.376 9.07048 13.404 9.07048 13.488V21.86C9.07048 21.944 9.12648 22 9.21048 22H9.95248C10.0365 22 10.0925 21.944 10.0925 21.86V12.34C10.0925 12.256 10.0365 12.2 9.95248 12.2H9.07048C9.00048 12.2 8.95848 12.214 8.90248 12.256ZM15.6001 22.238C17.8261 22.238 18.9601 20.978 18.9601 19.382C18.9601 18.346 18.3861 17.464 17.4201 17.058C17.3221 17.016 17.3221 16.918 17.4201 16.862C18.2041 16.414 18.7221 15.644 18.7221 14.72C18.7221 13.208 17.6301 11.962 15.6001 11.962C13.5701 11.962 12.4781 13.208 12.4781 14.72C12.4781 15.644 13.0101 16.4 13.7801 16.862C13.8781 16.932 13.8781 17.016 13.7801 17.058C12.8281 17.492 12.2401 18.346 12.2401 19.382C12.2401 20.978 13.3741 22.238 15.6001 22.238ZM15.6001 16.512C14.3121 16.512 13.5141 15.84 13.5141 14.72C13.5141 13.6 14.3121 12.928 15.6001 12.928C16.8881 12.928 17.6861 13.6 17.6861 14.72C17.6861 15.84 16.8881 16.512 15.6001 16.512ZM15.6001 21.272C14.0741 21.272 13.3181 20.488 13.3041 19.382C13.3181 18.276 14.0741 17.492 15.6001 17.492C17.1261 17.492 17.9101 18.276 17.8961 19.382C17.8821 20.488 17.1261 21.272 15.6001 21.272ZM23.9695 13.964H23.3115C23.2275 13.964 23.1715 14.02 23.1715 14.104V16.554C23.1715 16.596 23.1435 16.624 23.1015 16.624H20.6515C20.5675 16.624 20.5115 16.68 20.5115 16.764V17.422C20.5115 17.506 20.5675 17.562 20.6515 17.562H23.1015C23.1435 17.562 23.1715 17.59 23.1715 17.632V20.096C23.1715 20.18 23.2275 20.236 23.3115 20.236H23.9695C24.0535 20.236 24.1095 20.18 24.1095 20.096V17.632C24.1095 17.59 24.1375 17.562 24.1795 17.562H26.6435C26.7275 17.562 26.7835 17.506 26.7835 17.422V16.764C26.7835 16.68 26.7275 16.624 26.6435 16.624H24.1795C24.1375 16.624 24.1095 16.596 24.1095 16.554V14.104C24.1095 14.02 24.0535 13.964 23.9695 13.964Z" fill="#999999"/>
</svg>
