<svg width="79" height="32" viewBox="0 0 79 32" fill="none" xmlns="http://www.w3.org/2000/svg">
<path d="M37.3618 15.6447V24.7745H34.4453V2.22808H42.1804C43.1037 2.20892 44.0217 2.37154 44.8814 2.70655C45.7411 3.04156 46.5254 3.54233 47.1892 4.17995C47.8597 4.77886 48.3933 5.51336 48.7542 6.33409C49.1151 7.15481 49.2949 8.04275 49.2815 8.93821C49.3007 9.83846 49.1237 10.7322 48.7625 11.5582C48.4014 12.3841 47.8647 13.1227 47.1892 13.7235C45.8366 15.0043 44.167 15.6441 42.1804 15.6429H37.3618V15.6447ZM37.3618 5.00388V12.8743H42.2529C42.7891 12.8901 43.3227 12.7946 43.8196 12.5939C44.3165 12.3931 44.7657 12.0916 45.1386 11.7086C45.5095 11.3505 45.8043 10.9222 46.0057 10.449C46.207 9.97573 46.3107 9.46723 46.3107 8.9535C46.3107 8.43978 46.207 7.93127 46.0057 7.45805C45.8043 6.98482 45.5095 6.5565 45.1386 6.19839C44.7704 5.80731 44.3227 5.49841 43.8252 5.29216C43.3277 5.08592 42.7918 4.98704 42.2529 5.00208H37.3618V5.00388Z" fill="white"/>
<path d="M56.0017 8.84375C58.1573 8.84375 59.8589 9.41582 61.1065 10.56C62.354 11.7041 62.9771 13.2728 62.9759 15.2661V24.7736H60.1862V22.6328H60.0594C58.8518 24.3958 57.2456 25.2773 55.2408 25.2773C53.5296 25.2773 52.0979 24.7736 50.9458 23.7662C50.3929 23.3038 49.9508 22.7247 49.6518 22.0712C49.3529 21.4176 49.2045 20.706 49.2176 19.9883C49.2176 18.392 49.825 17.1226 51.04 16.1799C52.2549 15.2373 53.8768 14.7647 55.9057 14.7623C57.6374 14.7623 59.0637 15.0772 60.1844 15.7068V15.0448C60.1877 14.5555 60.0813 14.0716 59.873 13.6282C59.6646 13.1848 59.3595 12.793 58.9798 12.4813C58.2085 11.7902 57.2034 11.4132 56.1647 11.4253C54.5356 11.4253 53.2464 12.1077 52.2971 13.4725L49.7284 11.866C51.1414 9.85117 53.2325 8.84375 56.0017 8.84375ZM52.2283 20.0513C52.2263 20.4199 52.3131 20.7836 52.4814 21.1122C52.6496 21.4408 52.8945 21.7247 53.1956 21.9402C53.8407 22.4441 54.6413 22.711 55.4618 22.6958C56.6926 22.6937 57.8723 22.2073 58.7425 21.3429C59.7086 20.4399 60.1917 19.3803 60.1917 18.1642C59.2823 17.4446 58.0142 17.0848 56.3875 17.0848C55.2028 17.0848 54.2149 17.3684 53.4239 17.9357C52.625 18.5114 52.2283 19.2112 52.2283 20.0513Z" fill="white"/>
<path d="M78.9902 9.34766L69.2516 31.5738H66.2409L69.8548 23.7969L63.4512 9.34766H66.6213L71.2497 20.4293H71.3131L75.8147 9.34766H78.9902Z" fill="white"/>
<path d="M25.5774 13.6767C25.5785 12.794 25.5034 11.9129 25.3528 11.043H13.0527V16.0315H20.0977C19.9535 16.8282 19.6484 17.5877 19.2007 18.2642C18.753 18.9407 18.172 19.5201 17.4927 19.9676V23.2058H21.6972C24.159 20.9517 25.5774 17.6182 25.5774 13.6767Z" fill="#4285F4"/>
<path d="M13.0518 26.3349C16.5716 26.3349 19.5352 25.1872 21.6963 23.2083L17.4918 19.9702C16.3216 20.7581 14.8144 21.2078 13.0518 21.2078C9.64982 21.2078 6.76229 18.9304 5.72973 15.8613H1.39844V19.1984C2.48401 21.3436 4.14862 23.147 6.20641 24.4072C8.26421 25.6674 10.6342 26.3348 13.0518 26.3349Z" fill="#34A853"/>
<path d="M5.72989 15.8595C5.18401 14.2513 5.18401 12.5097 5.72989 10.9015V7.56445H1.39859C0.485371 9.36909 0.00976562 11.3608 0.00976562 13.3805C0.00976562 15.4002 0.485371 17.3919 1.39859 19.1966L5.72989 15.8595Z" fill="#FBBC04"/>
<path d="M13.0518 5.55563C14.9118 5.52545 16.7091 6.22336 18.0552 7.49851L21.7778 3.80164C19.4173 1.59985 16.2901 0.391024 13.0518 0.428584C10.6342 0.428694 8.26421 1.0961 6.20641 2.35629C4.14862 3.61647 2.48401 5.41985 1.39844 7.56507L5.72973 10.9022C6.76229 7.83312 9.64982 5.55563 13.0518 5.55563Z" fill="#EA4335"/>
</svg>
