<svg width="70" height="29" viewBox="0 0 70 29" fill="none" xmlns="http://www.w3.org/2000/svg">
<path d="M12.7369 4.07422C13.44 3.22461 13.9381 2.06738 13.9381 0.895508C13.9381 0.734375 13.9234 0.573242 13.8941 0.441406C12.7515 0.485352 11.3746 1.20312 10.5543 2.16992C9.90974 2.90234 9.30916 4.07422 9.30916 5.24609C9.30916 5.42188 9.33846 5.59766 9.3531 5.65625C9.42635 5.6709 9.54353 5.68555 9.66072 5.68555C10.6861 5.68555 11.9752 4.99707 12.7369 4.07422ZM13.5426 5.93457C11.8287 5.93457 10.4371 6.97461 9.54353 6.97461C8.59138 6.97461 7.34627 5.99316 5.85213 5.99316C3.02498 5.99316 0.153885 8.33691 0.153885 12.7461C0.153885 15.5 1.20857 18.4004 2.52693 20.2754C3.65486 21.8574 4.63631 23.1611 6.05721 23.1611C7.46346 23.1611 8.07869 22.2236 9.82185 22.2236C11.5943 22.2236 11.9898 23.1318 13.5426 23.1318C15.0806 23.1318 16.106 21.7256 17.0728 20.334C18.1568 18.7373 18.6109 17.1846 18.6256 17.1113C18.5377 17.082 15.5933 15.8809 15.5933 12.5117C15.5933 9.59668 17.9078 8.29297 18.0396 8.19043C16.5162 5.99316 14.1871 5.93457 13.5426 5.93457ZM27.0161 23H30.4175V16.7114H34.6099C38.4727 16.7114 41.083 14.1538 41.083 10.3569V10.3306C41.083 6.52051 38.4727 3.97607 34.6099 3.97607H27.0161V23ZM33.7793 6.75781C36.2183 6.75781 37.6421 8.06299 37.6421 10.3438V10.3701C37.6421 12.6509 36.2183 13.9692 33.7793 13.9692H30.4175V6.75781H33.7793ZM46.6757 23.2373C48.5742 23.2373 50.1035 22.4199 50.8945 21.0225H51.1186V23H54.3618V13.1519C54.3618 10.1064 52.2788 8.31348 48.5742 8.31348C45.1465 8.31348 42.8261 9.92188 42.5097 12.3477L42.4965 12.4663H45.5947L45.6079 12.4136C45.9375 11.4644 46.9131 10.9238 48.416 10.9238C50.1826 10.9238 51.1186 11.7148 51.1186 13.1519V14.3911L47.414 14.6152C43.9072 14.8262 41.9428 16.3291 41.9428 18.8999V18.9263C41.9428 21.5498 43.9336 23.2373 46.6757 23.2373ZM45.186 18.7681V18.7417C45.186 17.5552 46.0429 16.8828 47.8755 16.7642L51.1186 16.5532V17.7134C51.1186 19.4272 49.6552 20.7192 47.6777 20.7192C46.2275 20.7192 45.186 19.9941 45.186 18.7681ZM58.1747 28.0625C61.3652 28.0625 63.0131 26.9155 64.2524 23.3032L69.4203 8.59033H65.9662L62.6176 19.8491H62.3671L59.0053 8.59033H55.4194L60.5741 23.0132L60.4028 23.6724C60.0468 24.9775 59.2426 25.5312 57.8979 25.5312C57.5551 25.5312 57.186 25.5181 56.9223 25.4917V28.0098C57.3178 28.0493 57.7792 28.0625 58.1747 28.0625Z" fill="black"/>
</svg>
