<svg width="41" height="40" viewBox="0 0 41 40" fill="none" xmlns="http://www.w3.org/2000/svg">
<path fill-rule="evenodd" clip-rule="evenodd" d="M7.48521 19.0526C15.2371 15.6752 20.4062 13.4486 22.9926 12.3729C30.3772 9.30136 31.9117 8.76781 32.9118 8.75019C33.1318 8.74631 33.6236 8.80083 33.9422 9.05935C34.2112 9.27763 34.2853 9.57251 34.3207 9.77946C34.3561 9.98642 34.4002 10.4579 34.3651 10.8263C33.965 15.0309 32.2334 25.2346 31.3525 29.9439C30.9797 31.9366 30.2458 32.6047 29.5352 32.6701C27.991 32.8122 26.8184 31.6496 25.3228 30.6692C22.9824 29.1351 21.6603 28.1801 19.3886 26.683C16.7632 24.953 18.4651 24.0021 19.9613 22.4481C20.3529 22.0414 27.1566 15.8528 27.2883 15.2914C27.3048 15.2212 27.3201 14.9595 27.1646 14.8213C27.0091 14.6831 26.7796 14.7304 26.614 14.7679C26.3793 14.8212 22.6405 17.2924 15.3977 22.1815C14.3365 22.9102 13.3753 23.2653 12.514 23.2467C11.5646 23.2262 9.73824 22.7098 8.38054 22.2685C6.71527 21.7272 5.39175 21.441 5.507 20.5217C5.56702 20.0428 6.22643 19.5531 7.48521 19.0526Z" stroke="black" stroke-width="2" stroke-linecap="round" stroke-linejoin="round"/>
</svg>
