<svg width="40" height="40" viewBox="0 0 40 40" fill="none" xmlns="http://www.w3.org/2000/svg">
<path d="M19.3844 35H20.6336C27.4148 35 30.806 35 32.912 32.894C35.018 30.788 35 27.398 35 20.6336V19.3664C35 12.6032 35 9.21201 32.912 7.10601C30.824 5.00001 27.4148 5 20.6336 5H19.3844C12.602 5 9.212 5.00001 7.106 7.10601C5 9.21201 5 12.6008 5 19.3664V20.6336C5 27.398 5 30.788 7.106 32.894C9.212 35 12.602 35 19.3844 35Z" stroke="#77C5D5" stroke-width="3" stroke-linecap="round" stroke-linejoin="round"/>
<path d="M21.0983 26.6277C14.3339 26.6277 10.2287 21.9345 10.0691 14.1357H13.4951C13.6019 19.8645 16.2083 22.2957 18.2063 22.7913V14.1357H21.4907V19.0785C23.4179 18.8649 25.4339 16.6161 26.1131 14.1357H29.3423C28.8251 17.1873 26.6303 19.4361 25.0775 20.3637C26.6303 21.1137 29.1287 23.0769 30.0923 26.6277H26.5415C25.7915 24.2541 23.9531 22.4157 21.4907 22.1661V26.6277H21.0983Z" fill="#77C5D5"/>
</svg>
