<svg width="34" height="22" viewBox="0 0 34 22" fill="none" xmlns="http://www.w3.org/2000/svg">
<path d="M21.2154 3.09293L12.6162 3.1225L12.8768 18.8654L21.476 18.8358L21.2154 3.09293Z" fill="#FF5F00"/>
<path d="M13.1821 11.0257C13.1289 7.82368 14.5633 4.97859 16.81 3.13313C15.1142 1.80239 12.9881 1.00216 10.6835 1.01006C5.22357 1.02876 0.880769 5.52666 0.972847 11.0675C1.06492 16.6083 5.55672 21.0759 11.0166 21.0572C13.3213 21.0494 15.4205 20.2347 17.0719 18.8925C14.7646 17.0904 13.2354 14.2276 13.1821 11.0257Z" fill="#EB001B"/>
<path d="M33.1191 10.8908C33.2112 16.4317 28.8683 20.9296 23.4085 20.9483C21.1038 20.9562 18.9777 20.1559 17.2819 18.8252C19.556 16.9796 20.963 14.1346 20.9098 10.9327C20.8566 7.73068 19.3278 4.89573 17.02 3.06588C18.6714 1.72366 20.7706 0.908968 23.0753 0.901075C28.5352 0.882376 33.0275 5.37786 33.1191 10.8908Z" fill="#F79E1B"/>
</svg>
