<svg width="40" height="40" viewBox="0 0 40 40" fill="none" xmlns="http://www.w3.org/2000/svg">
<path fill-rule="evenodd" clip-rule="evenodd" d="M6.98521 19.0526C14.7371 15.6752 19.9062 13.4486 22.4926 12.3729C29.8772 9.30136 31.4117 8.76781 32.4118 8.75019C32.6318 8.74631 33.1236 8.80083 33.4422 9.05935C33.7112 9.27763 33.7853 9.57251 33.8207 9.77946C33.8561 9.98642 33.9002 10.4579 33.8651 10.8263C33.465 15.0309 31.7334 25.2346 30.8525 29.9439C30.4797 31.9366 29.7458 32.6047 29.0352 32.6701C27.491 32.8122 26.3184 31.6496 24.8228 30.6692C22.4824 29.1351 21.1603 28.1801 18.8886 26.683C16.2632 24.953 17.9651 24.0021 19.4613 22.4481C19.8529 22.0414 26.6566 15.8528 26.7883 15.2914C26.8048 15.2212 26.8201 14.9595 26.6646 14.8213C26.5091 14.6831 26.2796 14.7304 26.114 14.7679C25.8793 14.8212 22.1405 17.2924 14.8977 22.1815C13.8365 22.9102 12.8753 23.2653 12.014 23.2467C11.0646 23.2262 9.23824 22.7098 7.88054 22.2685C6.21527 21.7272 4.89175 21.441 5.007 20.5217C5.06702 20.0428 5.72643 19.5531 6.98521 19.0526Z" stroke="#77C5D5" stroke-width="3" stroke-linecap="round" stroke-linejoin="round"/>
</svg>
