<svg width="24" height="24" viewBox="0 0 24 24" fill="none" xmlns="http://www.w3.org/2000/svg">
<path d="M11.6306 21H12.3802C16.4489 21 18.4836 21 19.7472 19.7364C21.0108 18.4728 21 16.4388 21 12.3802V11.6198C21 7.56192 21 5.5272 19.7472 4.2636C18.4944 3 16.4489 3 12.3802 3H11.6306C7.5612 3 5.5272 3 4.2636 4.2636C3 5.5272 3 7.56048 3 11.6198V12.3802C3 16.4388 3 18.4728 4.2636 19.7364C5.5272 21 7.5612 21 11.6306 21Z" stroke="#77C5D5" stroke-linecap="round" stroke-linejoin="round"/>
<path d="M12.659 15.9766C8.60036 15.9766 6.13723 13.1607 6.04147 8.48145H8.09708C8.16116 11.9187 9.725 13.3774 10.9238 13.6748V8.48145H12.8944V11.4471C14.0508 11.319 15.2604 9.96969 15.6679 8.48145H17.6054C17.2951 10.3124 15.9782 11.6617 15.0465 12.2182C15.9782 12.6682 17.4772 13.8462 18.0554 15.9766H15.9249C15.4749 14.5525 14.3719 13.4494 12.8944 13.2997V15.9766H12.659Z" fill="#77C5D5"/>
</svg>
