<svg width="145" height="22" viewBox="0 0 145 22" fill="none" xmlns="http://www.w3.org/2000/svg">
<path d="M40.4218 4.59644H37.7311C36.9177 4.59644 36.292 4.84673 35.9165 5.66018L30.7855 17.3613H34.4148C34.4148 17.3613 35.0405 15.797 35.1656 15.4216C35.5411 15.4216 39.1077 15.4216 39.6083 15.4216C39.7335 15.8596 40.0463 17.2988 40.0463 17.2988H43.3001L40.4218 4.59644ZM36.1668 12.7935C36.4797 12.0426 37.5434 9.22685 37.5434 9.22685C37.5434 9.28942 37.8563 8.47597 37.9814 8.03796L38.2317 9.16427C38.2317 9.16427 38.92 12.2304 39.0452 12.8561H36.1668V12.7935Z" fill="#528CBE"/>
<path d="M31.0357 13.1692C31.0357 15.7972 28.6579 17.5493 24.9661 17.5493C23.4018 17.5493 21.9 17.2364 21.0865 16.861L21.5871 13.9826L22.0251 14.1703C23.1515 14.6709 23.9023 14.8586 25.2789 14.8586C26.2801 14.8586 27.3439 14.4832 27.3439 13.6072C27.3439 13.044 26.9058 12.6686 25.5292 12.0429C24.2152 11.4171 22.4632 10.416 22.4632 8.60133C22.4632 6.09841 24.9035 4.40894 28.345 4.40894C29.6591 4.40894 30.7854 4.65923 31.4737 4.97209L30.9731 7.72531L30.7228 7.47502C30.0971 7.22473 29.2836 6.97443 28.0947 6.97443C26.7807 7.03701 26.155 7.60016 26.155 8.10075C26.155 8.66391 26.9058 9.10192 28.0947 9.66508C30.0971 10.6037 31.0357 11.6674 31.0357 13.1692Z" fill="#528CBE"/>
<path d="M0.5 4.72197L0.562573 4.47168H5.94386C6.69474 4.47168 7.25789 4.72197 7.44561 5.53542L8.6345 11.167C7.44561 8.16349 4.6924 5.72314 0.5 4.72197Z" fill="#F9B50B"/>
<path d="M16.2057 4.597L10.7619 17.2993H7.07006L3.94141 6.66191C6.19404 8.10109 8.07123 10.3537 8.75953 11.918L9.13497 13.2321L12.5139 4.53442H16.2057V4.597Z" fill="#528CBE"/>
<path d="M17.645 4.53442H21.0865L18.8965 17.2993H15.455L17.645 4.53442Z" fill="#528CBE"/>
<path d="M75.7154 3.09299L67.1162 3.12256L67.3768 18.8655L75.976 18.8359L75.7154 3.09299Z" fill="#FF5F00"/>
<path d="M67.6821 11.0257C67.6289 7.82374 69.0633 4.97865 71.31 3.1332C69.6142 1.80245 67.4881 1.00222 65.1835 1.01012C59.7236 1.02882 55.3808 5.52672 55.4728 11.0675C55.5649 16.6084 60.0567 21.076 65.5166 21.0573C67.8213 21.0494 69.9205 20.2347 71.5719 18.8925C69.2646 17.0905 67.7354 14.2277 67.6821 11.0257Z" fill="#EB001B"/>
<path d="M87.6191 10.891C87.7112 16.4318 83.3683 20.9297 77.9085 20.9484C75.6038 20.9563 73.4777 20.1561 71.7819 18.8254C74.056 16.9798 75.463 14.1348 75.4098 10.9328C75.3566 7.73086 73.8278 4.89592 71.52 3.06606C73.1714 1.72385 75.2706 0.909152 77.5753 0.901258C83.0352 0.882559 87.5275 5.37805 87.6191 10.891Z" fill="#F79E1B"/>
<path d="M139.709 4.53418H131.143C131.642 7.36164 134.387 10.0228 137.38 10.0228H144.2C144.283 9.77331 144.283 9.3575 144.283 9.10802C144.283 6.6132 142.204 4.53418 139.709 4.53418Z" fill="url(#paint0_linear_9979_10231)"/>
<path d="M131.892 10.522V17.4243H136.05V13.7652H139.709C141.705 13.7652 143.451 12.3515 144.033 10.522H131.892Z" fill="#4FAD50"/>
<path d="M117.255 4.53418V17.3409H120.914C120.914 17.3409 121.829 17.3409 122.328 16.4262C124.823 11.5197 125.571 10.0228 125.571 10.0228H126.07V17.3409H130.228V4.53418H126.569C126.569 4.53418 125.654 4.61735 125.156 5.44895C123.076 9.69015 121.912 11.8523 121.912 11.8523H121.413V4.53418H117.255Z" fill="#4FAD50"/>
<path d="M99.7917 17.4239V4.61719H103.95C103.95 4.61719 105.114 4.61718 105.779 6.44672C107.443 11.27 107.609 11.9353 107.609 11.9353C107.609 11.9353 107.942 10.7711 109.438 6.44672C110.104 4.61718 111.268 4.61719 111.268 4.61719H115.426V17.4239H111.268V10.5216H110.769L108.44 17.4239H106.611L104.282 10.5216H103.783V17.4239H99.7917Z" fill="#4FAD50"/>
<defs>
<linearGradient id="paint0_linear_9979_10231" x1="131.129" y1="7.31782" x2="144.253" y2="7.31782" gradientUnits="userSpaceOnUse">
<stop stop-color="#27B1E6"/>
<stop offset="1" stop-color="#148ACA"/>
</linearGradient>
</defs>
</svg>
