<svg width="45" height="14" viewBox="0 0 45 14" fill="none" xmlns="http://www.w3.org/2000/svg">
<path d="M40.209 0.534149H31.6434C32.1424 3.36161 34.8867 6.02276 37.8805 6.02276H44.6997C44.7828 5.77328 44.7828 5.35747 44.7828 5.10799C44.7828 2.61317 42.7038 0.534149 40.209 0.534149Z" fill="url(#paint0_linear_8504_7611)"/>
<path d="M32.3918 6.52185V13.4242H36.5499V9.76511H40.2089C42.2048 9.76511 43.9512 8.35139 44.5333 6.52185H32.3918Z" fill="#4FAD50"/>
<path d="M17.7552 0.534149V13.3409H21.4143C21.4143 13.3409 22.3291 13.3409 22.8281 12.4261C25.3229 7.51965 26.0713 6.02276 26.0713 6.02276H26.5703V13.3409H30.7283V0.534149H27.0693C27.0693 0.534149 26.1545 0.617315 25.6555 1.44892C23.5765 5.69012 22.4123 7.85229 22.4123 7.85229H21.9133V0.534149H17.7552Z" fill="#4FAD50"/>
<path d="M0.291748 13.424V0.617249H4.44978C4.44978 0.617249 5.61404 0.617246 6.27933 2.44678C7.94254 7.2701 8.10888 7.93539 8.10888 7.93539C8.10888 7.93539 8.4415 6.77114 9.9384 2.44678C10.6037 0.617246 11.7679 0.617249 11.7679 0.617249H15.926V13.424H11.7679V6.52166H11.269L8.94048 13.424H7.11094L4.78245 6.52166H4.28348V13.424H0.291748Z" fill="#4FAD50"/>
<defs>
<linearGradient id="paint0_linear_8504_7611" x1="31.6286" y1="3.31779" x2="44.7534" y2="3.31779" gradientUnits="userSpaceOnUse">
<stop stop-color="#27B1E6"/>
<stop offset="1" stop-color="#148ACA"/>
</linearGradient>
</defs>
</svg>
