<svg width="43" height="14" viewBox="0 0 43 14" fill="none" xmlns="http://www.w3.org/2000/svg">
<path d="M39.9218 0.596542H37.2311C36.4177 0.596542 35.792 0.846835 35.4165 1.66029L30.2855 13.3615H33.9148C33.9148 13.3615 34.5405 11.7971 34.6656 11.4217C35.0411 11.4217 38.6077 11.4217 39.1083 11.4217C39.2335 11.8597 39.5463 13.2989 39.5463 13.2989H42.8001L39.9218 0.596542ZM35.6668 8.79362C35.9797 8.04274 37.0434 5.22695 37.0434 5.22695C37.0434 5.28953 37.3563 4.47607 37.4814 4.03806L37.7317 5.16438C37.7317 5.16438 38.42 8.23046 38.5452 8.85619H35.6668V8.79362Z" fill="#528CBE"/>
<path d="M30.5357 9.16922C30.5357 11.7973 28.1579 13.5493 24.4661 13.5493C22.9018 13.5493 21.4 13.2365 20.5865 12.861L21.0871 9.98267L21.5251 10.1704C22.6515 10.671 23.4023 10.8587 24.7789 10.8587C25.7801 10.8587 26.8439 10.4833 26.8439 9.60723C26.8439 9.04407 26.4058 8.66863 25.0292 8.0429C23.7152 7.41717 21.9632 6.416 21.9632 4.60138C21.9632 2.09846 24.4035 0.408981 27.845 0.408981C29.1591 0.408981 30.2854 0.659274 30.9737 0.972139L30.4731 3.72536L30.2228 3.47506C29.5971 3.22477 28.7836 2.97448 27.5947 2.97448C26.2807 3.03705 25.655 3.60021 25.655 4.10079C25.655 4.66395 26.4058 5.10196 27.5947 5.66512C29.5971 6.60372 30.5357 7.66746 30.5357 9.16922Z" fill="#528CBE"/>
<path d="M0 0.721972L0.0625731 0.47168H5.44386C6.19474 0.47168 6.75789 0.721972 6.94561 1.53542L8.1345 7.167C6.94561 4.16349 4.1924 1.72314 0 0.721972Z" fill="#F9B50B"/>
<path d="M15.7058 0.596951L10.2619 13.2993H6.57012L3.44147 2.66186C5.6941 4.10104 7.57129 6.35368 8.2596 7.918L8.63503 9.23204L12.014 0.534378H15.7058V0.596951Z" fill="#528CBE"/>
<path d="M17.145 0.534378H20.5865L18.3964 13.2993H14.9549L17.145 0.534378Z" fill="#528CBE"/>
</svg>
