<svg width="32" height="32" viewBox="0 0 32 32" fill="none" xmlns="http://www.w3.org/2000/svg">
<path fill-rule="evenodd" clip-rule="evenodd" d="M2.19765 3.69817H2.83929C3.54977 3.69817 3.9059 3.38255 3.9059 2.75085C3.9059 2.11915 3.54977 1.80397 2.83929 1.80397H2.19765V3.69817ZM2.19765 7.81066H0.261597V0.211604H3.34285C4.17899 0.211604 4.81931 0.432987 5.26335 0.875755C5.7074 1.31941 5.92987 1.94533 5.92987 2.75085C5.92987 3.55681 5.70785 4.18228 5.26335 4.6255C4.81931 5.06915 4.17899 5.29054 3.34285 5.29054H2.19765V7.81111V7.81066ZM14.2451 3.60749H14.6106C14.9924 3.60749 15.2855 3.52702 15.4893 3.36565C15.6936 3.20473 15.7953 2.97223 15.7953 2.67083C15.7953 2.36809 15.6932 2.13604 15.4893 1.97512C15.2851 1.81375 14.992 1.73284 14.6101 1.73284H14.2451V3.60793V3.60749ZM18.5009 7.81066H16.091L14.2451 4.88778V7.81066H12.3099V0.211159H15.321C15.7367 0.211159 16.0981 0.273395 16.4076 0.397424C16.7167 0.521896 16.9716 0.691713 17.1727 0.906873C17.3734 1.12157 17.528 1.37513 17.627 1.65193C17.7291 1.93466 17.7797 2.23695 17.7797 2.55969C17.7797 3.1376 17.6434 3.60571 17.3708 3.96534C17.0968 4.32543 16.694 4.56859 16.1603 4.69662L18.5009 7.81066ZM25.6753 4.01069C25.6753 4.31298 25.7309 4.59215 25.8436 4.84732C25.9507 5.09625 26.1046 5.3222 26.297 5.51281C26.488 5.70085 26.7104 5.84711 26.964 5.95113C27.2171 6.05515 27.4857 6.10672 27.7686 6.10672C28.3193 6.10941 28.8491 5.89605 29.2446 5.51236C29.4397 5.32281 29.5958 5.09689 29.7042 4.84732C29.8152 4.59215 29.872 4.31298 29.872 4.01069C29.8747 3.72317 29.8175 3.43825 29.7042 3.17405C29.4859 2.6723 29.0799 2.27618 28.5732 2.07069C28.3178 1.96642 28.0444 1.91355 27.7686 1.9151C27.4857 1.9151 27.2175 1.96667 26.964 2.07069C26.7152 2.17172 26.4886 2.32064 26.297 2.50901C26.1061 2.69706 25.9551 2.91933 25.8436 3.17405C25.7296 3.43804 25.6722 3.72308 25.6753 4.01069ZM23.6514 4.01069C23.6514 3.44612 23.7535 2.92066 23.9573 2.43344C24.1543 1.95697 24.4428 1.52381 24.8063 1.15849C25.1773 0.789776 25.619 0.500044 26.1047 0.306736C26.6087 0.102245 27.1629 0 27.7686 0C28.3676 0 28.9205 0.102245 29.4276 0.306736C29.9163 0.499951 30.3611 0.789613 30.7357 1.15849C31.1019 1.52273 31.3923 1.95608 31.5901 2.43344C31.7943 2.92066 31.896 3.44612 31.896 4.01069C31.896 4.57526 31.7939 5.1016 31.5896 5.58883C31.392 6.06588 31.1017 6.49893 30.7357 6.86289C30.3615 7.23218 29.9165 7.52191 29.4276 7.71464C28.9205 7.91913 28.3676 8.02138 27.7686 8.02138C27.1629 8.02138 26.6087 7.91913 26.1047 7.71464C25.6187 7.52182 25.177 7.23203 24.8063 6.86289C24.4428 6.49776 24.1543 6.06474 23.9573 5.58838C23.7531 5.1016 23.6509 4.57526 23.6509 4.01024" fill="#374146"/>
<path fill-rule="evenodd" clip-rule="evenodd" d="M16.3735 29.1546V32.0001H14.4384V29.1546H12.0734V27.2043H18.7385V29.1546H16.3735Z" fill="#374146"/>
<path fill-rule="evenodd" clip-rule="evenodd" d="M14.4382 26.3757H16.3734V24.4006H14.4382V26.3757ZM5.94491 14.8455C5.49731 14.2876 4.94447 14.0089 4.28595 14.0089C4.01768 14.0063 3.75165 14.058 3.50387 14.161C3.25609 14.264 3.03167 14.4161 2.84413 14.6081C2.66651 14.7931 2.52708 15.014 2.42539 15.2687C2.32177 15.5317 2.26961 15.8121 2.27175 16.0947C2.27175 16.3974 2.32326 16.6762 2.42539 16.9318C2.52752 17.1874 2.66873 17.4088 2.8499 17.5968C3.03107 17.7849 3.24288 17.9338 3.48622 18.0405C3.73535 18.149 4.00448 18.204 4.27618 18.2018C4.89474 18.2018 5.45113 17.9338 5.94491 17.3954V19.7338L5.74776 19.804C5.47764 19.9037 5.20035 19.9828 4.91827 20.0405C4.66777 20.0903 4.41302 20.1156 4.15762 20.1161C3.65068 20.1174 3.14866 20.0164 2.68161 19.8191C2.21617 19.6246 1.79342 19.3405 1.43738 18.9829C1.07224 18.6138 0.77931 18.1796 0.57371 17.7026C0.356571 17.2092 0.247779 16.6699 0.247779 16.0854C0.247779 15.5003 0.35435 14.9651 0.568381 14.4779C0.771333 14.0066 1.06306 13.5789 1.42761 13.218C2.1591 12.4989 3.14303 12.0954 4.16828 12.0942C4.46401 12.0942 4.75531 12.1258 5.04172 12.1898C5.32769 12.2538 5.62919 12.353 5.94491 12.4877V14.8455ZM14.0084 15.2385H16.8028V12.3058H18.7379V19.9045H16.8028V16.7709H14.0088V19.9049H12.0737V12.3054H14.0088L14.0084 15.2385ZM28.6429 17.0829L27.7739 14.5526L26.9049 17.0829H28.6429ZM29.1566 18.5846H26.3911L25.9475 19.9049H23.884L26.7175 12.3054H28.8311L31.6642 19.9049H29.6007L29.1566 18.5846ZM1.93649 27.7969H2.3015C2.68294 27.7969 2.97645 27.716 3.18072 27.5546C3.38453 27.3928 3.48622 27.1617 3.48622 26.8594C3.48622 26.5571 3.38409 26.325 3.18072 26.1641C2.97645 26.0027 2.68294 25.9218 2.3015 25.9218H1.93649V27.7969ZM6.1918 31.9997H3.78196L1.93605 29.0768V31.9997H0V24.4001H3.01198C3.42672 24.4001 3.78906 24.4624 4.09856 24.5864C4.40762 24.7109 4.6625 24.8807 4.86277 25.0954C5.06369 25.3104 5.21858 25.5643 5.31792 25.8414C5.42104 26.1326 5.47273 26.4397 5.47067 26.7487C5.47067 27.3266 5.3339 27.7947 5.06081 28.1543C4.78772 28.5144 4.38453 28.7576 3.85123 28.8856L6.19136 31.9997H6.1918ZM26.8014 28.3508L24.0856 24.4001H26.3964L27.7792 26.4762L29.1513 24.4001H31.4621L28.7366 28.3513V31.9997H26.8014V28.3508Z" fill="white"/>
</svg>
