<svg width="26" height="26" viewBox="0 0 26 26" fill="none" xmlns="http://www.w3.org/2000/svg">
<mask id="mask0_77_563" style="mask-type:alpha" maskUnits="userSpaceOnUse" x="0" y="0" width="26" height="26">
<path fill-rule="evenodd" clip-rule="evenodd" d="M26 13L26 0H13H1.1365e-06L9.58462e-07 13L0 26L26 26L26 13ZM26 13L13 26L9.58462e-07 13L13 0L26 13Z" fill="white"/>
</mask>
<g mask="url(#mask0_77_563)">
<path d="M26 13C26 14.7072 25.6637 16.3976 25.0104 17.9749C24.3571 19.5521 23.3995 20.9852 22.1924 22.1924C20.9852 23.3995 19.5521 24.3571 17.9749 25.0104C16.3976 25.6637 14.7072 26 13 26L13 13H26Z" fill="#DE5C6D"/>
<path d="M6.85854e-06 13C7.00779e-06 11.2928 0.336261 9.60235 0.989574 8.02512C1.64289 6.44789 2.60046 5.01478 3.80762 3.80762C5.01478 2.60046 6.44789 1.64288 8.02512 0.989573C9.60235 0.336262 11.2928 8.251e-06 13 8.40025e-06L13 13L6.85854e-06 13Z" fill="#DE5C6D"/>
<path d="M13 26C11.2928 26 9.60235 25.6637 8.02512 25.0104C6.44789 24.3571 5.01478 23.3995 3.80762 22.1924C2.60046 20.9852 1.64288 19.5521 0.989574 17.9749C0.336263 16.3976 8.89387e-06 14.7072 8.9685e-06 13L13 13L13 26Z" fill="#F6D7C4"/>
<path d="M13 5.51944e-06C14.7072 5.74331e-06 16.3976 0.33626 17.9749 0.989573C19.5521 1.64288 20.9852 2.60046 22.1924 3.80762C23.3995 5.01478 24.3571 6.44789 25.0104 8.02512C25.6637 9.60235 26 11.2928 26 13L13 13L13 5.51944e-06Z" fill="#F6D7C4"/>
<rect x="13.7222" width="26" height="1.44444" transform="rotate(90 13.7222 0)" fill="#DFA288"/>
<rect y="12.2778" width="26" height="1.44444" fill="#DFA288"/>
<path d="M8.51361 4.48625C8.31242 4.28505 8.07357 4.12546 7.81069 4.01657C7.54782 3.90769 7.26608 3.85164 6.98155 3.85164C6.69702 3.85164 6.41527 3.90769 6.1524 4.01657C5.88953 4.12546 5.65068 4.28505 5.44948 4.48625C5.24829 4.68744 5.08869 4.92629 4.97981 5.18916C4.87092 5.45204 4.81488 5.73378 4.81488 6.01831C4.81488 6.30284 4.87092 6.58459 4.97981 6.84746C5.08869 7.11033 5.24829 7.34918 5.44948 7.55037L6.98155 6.01831L8.51361 4.48625Z" fill="#383547"/>
<path d="M8.51361 21.5138C8.31242 21.7149 8.07357 21.8745 7.81069 21.9834C7.54782 22.0923 7.26608 22.1484 6.98155 22.1484C6.69702 22.1484 6.41527 22.0923 6.1524 21.9834C5.88953 21.8745 5.65068 21.7149 5.44948 21.5138C5.24829 21.3126 5.08869 21.0737 4.97981 20.8108C4.87092 20.548 4.81488 20.2662 4.81488 19.9817C4.81488 19.6972 4.87092 19.4154 4.97981 19.1525C5.08869 18.8897 5.24829 18.6508 5.44948 18.4496L6.98155 19.9817L8.51361 21.5138Z" fill="#383547"/>
<path d="M17.421 4.48625C17.6222 4.28505 17.8611 4.12546 18.1239 4.01657C18.3868 3.90769 18.6686 3.85164 18.9531 3.85164C19.2376 3.85164 19.5194 3.90769 19.7822 4.01657C20.0451 4.12546 20.284 4.28505 20.4851 4.48625C20.6863 4.68744 20.8459 4.92629 20.9548 5.18916C21.0637 5.45204 21.1197 5.73378 21.1197 6.01831C21.1197 6.30284 21.0637 6.58459 20.9548 6.84746C20.8459 7.11033 20.6863 7.34918 20.4851 7.55037L18.9531 6.01831L17.421 4.48625Z" fill="#383547"/>
<path d="M17.4864 21.5138C17.6876 21.7149 17.9264 21.8745 18.1893 21.9834C18.4522 22.0923 18.7339 22.1484 19.0185 22.1484C19.303 22.1484 19.5847 22.0923 19.8476 21.9834C20.1105 21.8745 20.3493 21.7149 20.5505 21.5138C20.7517 21.3126 20.9113 21.0737 21.0202 20.8108C21.1291 20.548 21.1851 20.2662 21.1851 19.9817C21.1851 19.6972 21.1291 19.4154 21.0202 19.1525C20.9113 18.8897 20.7517 18.6508 20.5505 18.4496L19.0185 19.9817L17.4864 21.5138Z" fill="#383547"/>
</g>
<path d="M5.44934 7.55037C5.65053 7.75157 5.88938 7.91116 6.15226 8.02005C6.41513 8.12893 6.69687 8.18498 6.9814 8.18498C7.26593 8.18498 7.54768 8.12893 7.81055 8.02005C8.07342 7.91116 8.31227 7.75157 8.51347 7.55037C8.71466 7.34918 8.87426 7.11033 8.98314 6.84746C9.09203 6.58459 9.14807 6.30284 9.14807 6.01831C9.14807 5.73378 9.09203 5.45204 8.98314 5.18916C8.87426 4.92629 8.71466 4.68744 8.51347 4.48625L6.9814 6.01831L5.44934 7.55037Z" fill="#E8A092"/>
<path d="M5.44934 18.4496C5.65053 18.2484 5.88938 18.0888 6.15226 17.98C6.41513 17.8711 6.69687 17.815 6.9814 17.815C7.26593 17.815 7.54768 17.8711 7.81055 17.98C8.07342 18.0888 8.31227 18.2484 8.51347 18.4496C8.71466 18.6508 8.87426 18.8897 8.98314 19.1525C9.09203 19.4154 9.14807 19.6972 9.14807 19.9817C9.14807 20.2662 9.09203 20.548 8.98314 20.8108C8.87426 21.0737 8.71466 21.3126 8.51347 21.5138L6.9814 19.9817L5.44934 18.4496Z" fill="#E8A092"/>
<path d="M20.4851 7.55037C20.2839 7.75157 20.0451 7.91116 19.7822 8.02005C19.5193 8.12893 19.2376 8.18498 18.953 8.18498C18.6685 8.18498 18.3868 8.12893 18.1239 8.02005C17.861 7.91116 17.6222 7.75157 17.421 7.55037C17.2198 7.34918 17.0602 7.11033 16.9513 6.84746C16.8424 6.58459 16.7864 6.30284 16.7864 6.01831C16.7864 5.73378 16.8424 5.45204 16.9513 5.18916C17.0602 4.92629 17.2198 4.68744 17.421 4.48625L18.953 6.01831L20.4851 7.55037Z" fill="#E8A092"/>
<path d="M20.5507 18.4496C20.3495 18.2484 20.1106 18.0888 19.8477 17.98C19.5849 17.8711 19.3031 17.815 19.0186 17.815C18.7341 17.815 18.4523 17.8711 18.1894 17.98C17.9266 18.0888 17.6877 18.2484 17.4865 18.4496C17.2853 18.6508 17.1257 18.8897 17.0169 19.1525C16.908 19.4154 16.8519 19.6972 16.8519 19.9817C16.8519 20.2662 16.908 20.548 17.0169 20.8108C17.1257 21.0737 17.2853 21.3126 17.4865 21.5138L19.0186 19.9817L20.5507 18.4496Z" fill="#E8A092"/>
</svg>
