<svg width="96" height="96" viewBox="0 0 96 96" fill="none" xmlns="http://www.w3.org/2000/svg">
<rect width="96" height="96" fill="white"/>
<path d="M44.1184 68.7944L38.262 59.2309C37.9951 58.795 37.9211 58.2949 38.004 57.8078L38.0071 57.7897L38.0111 57.7718C38.1249 57.262 38.4496 56.8277 38.8616 56.5603L51.0142 48.6752C51.6466 48.2648 52.4636 48.2925 53.0621 48.684L53.0682 48.6881L53.0743 48.6922C53.7075 49.1267 54.0016 49.9089 53.8643 50.6476L53.8642 50.6483C53.6239 51.9357 53.8527 53.2281 54.5317 54.3369C55.9939 56.7247 59.0676 57.4274 61.3921 55.9191C63.7166 54.4109 64.4264 51.2533 62.9642 48.8655C62.2974 47.7767 61.2496 46.9864 60.019 46.6547L60.0185 46.6546C59.3118 46.4634 58.753 45.8529 58.6453 45.0775C58.5388 44.3107 58.8745 43.575 59.5189 43.1569L71.7548 35.2177C72.1841 34.9391 72.6743 34.8607 73.1485 34.9432C73.7189 35.0424 74.1167 35.425 74.3541 35.8126L94.9381 69.4264C95.4873 70.3233 95.2241 71.5224 94.3385 72.097L61.4245 93.4532C60.9952 93.7317 60.5051 93.8101 60.0308 93.7276L60.0132 93.7246L59.9958 93.7206C59.5003 93.6065 59.0814 93.2765 58.8252 92.8582L52.8773 83.1454C52.2929 83.8725 51.5958 84.5117 50.7923 85.033C48.8254 86.3093 46.4654 86.7405 44.1862 86.2159C41.9082 85.6916 39.9773 84.2923 38.7333 82.2609L38.7313 82.2576C36.2324 78.1252 37.4718 72.5723 41.5647 69.9166C42.3681 69.3953 43.2291 69.0236 44.1184 68.7944ZM54.3573 78.2627L61.0243 89.1499L90.7394 69.8693L72.142 39.4996L64.258 44.6151C64.9898 45.2245 65.6221 45.954 66.1292 46.7821C68.6912 50.9659 67.4382 56.4995 63.3448 59.1555C59.2468 61.8145 53.8658 60.549 51.3066 56.3699C50.794 55.5327 50.4253 54.6322 50.2102 53.7002L42.4138 58.7589L48.9762 69.4754C49.3592 70.1007 49.3742 70.9307 48.946 71.5857C48.5097 72.253 47.7632 72.5267 47.0503 72.4167L47.0388 72.4149L47.0273 72.4128C45.817 72.1823 44.5714 72.4393 43.5043 73.1317C41.1798 74.6399 40.47 77.7975 41.9322 80.1853C42.6331 81.3299 43.7397 82.1349 45.04 82.4514C46.3189 82.7446 47.6542 82.5062 48.7927 81.7675C49.8353 81.091 50.6018 80.0456 50.9434 78.8013C51.1422 78.0485 51.7692 77.5262 52.4626 77.3863L52.4786 77.3831L52.4946 77.3807C53.2457 77.2666 53.9571 77.6092 54.3573 78.2627Z" fill="#77C5D5" stroke="#77C5D5" stroke-width="1.37817"/>
<path d="M42.9103 42.2526L39.2587 52.3751C39.09 52.8426 38.7596 53.196 38.3458 53.4175L38.33 53.4259L38.3137 53.4335C37.8627 53.6447 37.3426 53.6434 36.8958 53.4727L23.9875 48.5387C23.3003 48.2761 22.8391 47.6067 22.7797 46.9019L22.7791 46.8945L22.7786 46.8871C22.7308 46.13 23.1419 45.4364 23.7771 45.1093L23.7776 45.109C24.8639 44.5508 25.6833 43.6236 26.1066 42.45C27.0189 39.9211 25.7505 37.1224 23.3037 36.1871C20.8569 35.2519 18.1213 36.5202 17.209 39.0491C16.7933 40.2015 16.8191 41.4771 17.2877 42.6284L17.2879 42.6289C17.5617 43.3035 17.4334 44.1052 16.9172 44.6467C16.4061 45.1827 15.6536 45.3532 14.954 45.0858L1.9571 40.1181C1.49111 39.9399 1.14157 39.5944 0.923482 39.1688C0.660167 38.655 0.713308 38.1135 0.862807 37.6991L13.7428 1.99494C14.089 1.03504 15.1427 0.529304 16.1056 0.897362L51.0665 14.2604C51.5325 14.4385 51.882 14.7841 52.1001 15.2097L52.1085 15.226L52.116 15.2427C52.3234 15.7047 52.3225 16.2312 52.1608 16.6794L48.452 26.9605C49.3187 26.9995 50.1857 27.174 51.0283 27.4961C53.1275 28.2984 54.8272 29.9042 55.7695 32.0032C56.711 34.1007 56.7998 36.4349 56.0199 38.597L56.0186 38.6006C54.414 42.9726 49.5714 45.2478 45.2019 43.5777C44.3592 43.2556 43.5916 42.8053 42.9103 42.2526ZM43.9063 28.6564L48.0693 17.1163L16.5656 5.07465L4.94609 37.2849L13.2522 40.4597C13.2801 39.5405 13.4517 38.6296 13.7658 37.7588C15.3716 33.3074 20.2079 31.054 24.5781 32.7243C28.9532 34.3967 31.1514 39.3706 29.5474 43.8168C29.2299 44.6969 28.7845 45.5031 28.2286 46.2099L36.4416 49.3491L40.5392 37.9902C40.7809 37.3204 41.3928 36.8168 42.141 36.7702C42.905 36.7226 43.5547 37.1585 43.8936 37.7908L43.8992 37.8013L43.9045 37.812C44.4351 38.8877 45.3438 39.7078 46.4681 40.1375C48.9149 41.0728 51.6504 39.8045 52.5627 37.2756C52.9996 36.0643 52.9507 34.7344 52.4307 33.5376C51.9062 32.3717 50.9592 31.4711 49.7598 31.0127C48.6614 30.5929 47.451 30.6002 46.3386 31.0542C45.6536 31.3417 44.8874 31.1508 44.3703 30.6798L44.3581 30.6686L44.3463 30.6569C43.8146 30.1244 43.6538 29.3564 43.9063 28.6564Z" fill="#77C5D5" stroke="#77C5D5" stroke-width="1.37817"/>
</svg>
