<svg width="96" height="96" viewBox="0 0 96 96" fill="none" xmlns="http://www.w3.org/2000/svg">
<rect width="96" height="96" fill="white"/>
<mask id="path-2-outside-1_1539_15486" maskUnits="userSpaceOnUse" x="4.36782" y="9" width="88" height="79" fill="black">
<rect fill="white" x="4.36782" y="9" width="88" height="79"/>
<path fill-rule="evenodd" clip-rule="evenodd" d="M65.3953 10.059C62.4555 10.4801 60.6667 11.1359 58.5568 12.566C53.7772 15.8059 50.654 21.7192 51.1974 26.5006C51.3142 27.5285 51.3096 27.564 51.0363 27.7463C50.8816 27.8494 50.4486 28.2449 50.0739 28.6251C49.1024 29.6107 48.4391 30.9571 48.0464 32.7411L47.9724 33.0774L47.0164 32.4541C46.078 31.8423 46.0586 31.8193 45.9666 31.2072C45.9149 30.8641 45.7401 30.255 45.5779 29.8536C44.2011 26.4447 40.8066 23.7189 36.4894 22.5552C35.3456 22.247 32.6326 22.1882 31.4819 22.4466C28.351 23.15 25.5482 24.7758 22.216 27.8219L21.4747 28.4994L22.0159 29.5256C23.4506 32.2448 24.5308 33.7901 26.1358 35.4185C28.7865 38.1078 31.5025 39.2616 35.183 39.2616C38.8874 39.2616 42.193 38.0779 44.4151 35.9559L44.8701 35.5213L45.355 35.9054C46.4386 36.7637 47.2001 37.8135 47.6001 39.0009C47.8243 39.6665 47.8518 40.0576 47.8518 42.5842V45.4202L41.8907 45.4728C36.3925 45.5212 35.848 45.5451 34.8794 45.7805C31.8883 46.5079 28.9733 48.0285 26.8447 49.9721C25.9253 50.8115 23.066 53.8034 21.7712 55.2807C21.4043 55.6994 21.0723 56.047 21.0335 56.0529C20.9947 56.059 20.6991 55.5938 20.3766 55.0193C19.7893 53.973 19.1793 53.3065 18.6114 53.0905C18.0779 52.8878 17.1137 52.9576 16.5588 53.2393C15.2174 53.92 6.36277 59.0966 6.06453 59.3744C5.57566 59.8296 5.30892 60.6193 5.37885 61.4041C5.4316 61.9967 6.04513 63.1092 12.1418 73.6692C15.8295 80.0565 18.9858 85.468 19.1557 85.6946C19.7557 86.4945 20.8503 86.8742 21.765 86.5998C22.3459 86.4255 32.2328 80.7273 32.7021 80.2965C33.1693 79.8673 33.5144 79.1019 33.5176 78.4875C33.5192 78.1903 33.3725 77.6811 33.1497 77.21C32.9459 76.7792 32.7791 76.404 32.7791 76.3761C32.7791 76.3483 39.6085 76.3255 47.9556 76.3255C62.7297 76.3255 63.1575 76.3189 64.0984 76.0782C67.6112 75.1798 72.0426 71.8275 77.2451 66.1329C79.6373 63.5143 80.7962 62.1351 85.7093 56.0588C89.9983 50.7541 90.5221 49.9894 90.9065 48.4708C91.8354 44.8009 89.4689 40.8262 85.5479 39.4705C82.9712 38.5797 80.1975 39.06 77.9105 40.7931C77.4892 41.1123 76.3779 42.2466 75.4411 43.3136C73.5811 45.4321 70.3593 48.9883 68.844 50.5956L67.8845 51.6134L67.7348 51.1516C67.0463 49.0261 65.4433 47.2131 63.3909 46.2384C61.8439 45.5037 61.302 45.4435 56.2166 45.441L51.6708 45.4389L51.7071 39.3543C51.7471 32.6785 51.7477 32.6727 52.5305 31.5814C53.0767 30.82 53.2121 30.7913 53.8745 31.2972C55.8367 32.7954 59.3161 33.591 62.7619 33.3294C67.1208 32.9986 70.8093 31.4127 73.4986 28.7136C76.4579 25.7433 78.2597 21.4025 79.0414 15.3606C79.3364 13.0804 79.4156 13.3003 78.0897 12.7212C74.7826 11.277 71.7681 10.4042 69.0756 10.1115C67.9422 9.98837 66.0749 9.96181 65.3953 10.059ZM70.5126 14.1708C71.1867 14.3145 72.5122 14.6894 73.4582 15.0042L75.1782 15.5766L75.0963 16.1455C74.4202 20.841 72.5088 24.8381 69.9953 26.8128C66.8403 29.2911 61.4703 30.3033 57.8171 29.1084C56.6523 28.7273 56.637 28.7091 57.1899 28.3617C57.8748 27.9313 63.1278 24.8036 65.3335 23.5127C66.3528 22.9162 67.3409 22.2847 67.5292 22.1091C68.478 21.2254 68.1457 19.5578 66.9185 19.045C66.3129 18.792 65.871 18.8388 65.1348 19.2341C64.4032 19.6268 55.7907 24.7335 55.2146 25.116L54.856 25.3542L54.9452 24.5659C55.2223 22.116 56.859 19.0954 59.0024 17.0783C60.7411 15.4421 62.4667 14.4945 64.5305 14.0425C65.9406 13.7338 68.7433 13.7938 70.5126 14.1708ZM36.1767 26.4158C37.8721 26.9499 39.4644 27.9259 40.6389 29.1509C41.2838 29.8233 41.955 30.7447 41.8653 30.8343C41.838 30.8616 39.9249 30.4549 37.614 29.9304C32.9968 28.8825 32.837 28.8707 32.0985 29.519C31.2551 30.2596 31.2197 31.4361 32.0172 32.2205C32.4627 32.6586 32.534 32.6805 36.2824 33.5237L40.0947 34.3813L39.4795 34.6604C38.2837 35.203 37.0197 35.4553 35.4354 35.4676C34.62 35.474 33.6193 35.4065 33.2116 35.3178C30.9216 34.8195 28.8362 33.2011 26.9665 30.4714L26.1949 29.3447L26.491 29.1103C28.171 27.7814 30.1364 26.7402 31.8374 26.2783C33.0045 25.9613 34.9274 26.0223 36.1767 26.4158ZM84.8323 43.2609C85.7303 43.7003 86.5807 44.5347 86.9593 45.3479C87.3266 46.1368 87.366 47.2754 87.0531 48.0618C86.8642 48.5365 84.2841 51.8312 79.6745 57.4847C76.9256 60.8559 75.1794 62.8346 72.8706 65.1942C69.4557 68.6844 67.0783 70.6175 64.7975 71.7591C62.9758 72.671 64.0278 72.6236 46.352 72.5887L30.5017 72.5573L26.7641 66.0839L23.0263 59.6105L23.5045 59.0417C25.5304 56.6322 29.1358 52.9138 30.2883 52.0454C31.5445 51.0989 33.3813 50.1642 34.9412 49.6776L36.0531 49.3306H48.5313H61.0094L61.743 49.6903C62.6757 50.1476 63.4024 50.8743 63.861 51.8082C64.1784 52.4547 64.2216 52.6763 64.2216 53.6548C64.2216 54.6049 64.1731 54.8703 63.8877 55.4793C63.4283 56.4594 62.429 57.4319 61.4998 57.8029L60.7623 58.0973L53.6528 58.1616C47.0718 58.2211 46.5178 58.2425 46.2032 58.4488C45.0778 59.1868 45.1172 60.9179 46.2754 61.6241C46.6649 61.8615 46.9113 61.8697 53.7931 61.8701C60.5206 61.8706 60.9614 61.857 61.8854 61.6216C63.8309 61.1262 64.8264 60.4552 66.8161 58.2987C67.5635 57.4886 69.3426 55.5838 70.7696 54.0658C73.5005 51.1604 75.9613 48.4646 78.1369 45.9949C79.6764 44.2471 80.2685 43.6926 80.9874 43.3253C81.8206 42.8997 82.069 42.849 83.1375 42.8866C83.9317 42.9145 84.2829 42.9921 84.8323 43.2609ZM23.2688 67.6239C26.6398 73.4634 29.1815 77.9938 29.12 78.0528C28.7774 78.3809 21.625 82.3921 21.5427 82.3022C21.3686 82.1121 9.7651 61.9511 9.71544 61.7525C9.68109 61.6145 10.6866 60.9726 13.3474 59.4344C15.3713 58.2643 17.0904 57.3053 17.1679 57.3032C17.2453 57.3011 19.9908 61.9454 23.2688 67.6239Z"/>
</mask>
<path fill-rule="evenodd" clip-rule="evenodd" d="M65.3953 10.059C62.4555 10.4801 60.6667 11.1359 58.5568 12.566C53.7772 15.8059 50.654 21.7192 51.1974 26.5006C51.3142 27.5285 51.3096 27.564 51.0363 27.7463C50.8816 27.8494 50.4486 28.2449 50.0739 28.6251C49.1024 29.6107 48.4391 30.9571 48.0464 32.7411L47.9724 33.0774L47.0164 32.4541C46.078 31.8423 46.0586 31.8193 45.9666 31.2072C45.9149 30.8641 45.7401 30.255 45.5779 29.8536C44.2011 26.4447 40.8066 23.7189 36.4894 22.5552C35.3456 22.247 32.6326 22.1882 31.4819 22.4466C28.351 23.15 25.5482 24.7758 22.216 27.8219L21.4747 28.4994L22.0159 29.5256C23.4506 32.2448 24.5308 33.7901 26.1358 35.4185C28.7865 38.1078 31.5025 39.2616 35.183 39.2616C38.8874 39.2616 42.193 38.0779 44.4151 35.9559L44.8701 35.5213L45.355 35.9054C46.4386 36.7637 47.2001 37.8135 47.6001 39.0009C47.8243 39.6665 47.8518 40.0576 47.8518 42.5842V45.4202L41.8907 45.4728C36.3925 45.5212 35.848 45.5451 34.8794 45.7805C31.8883 46.5079 28.9733 48.0285 26.8447 49.9721C25.9253 50.8115 23.066 53.8034 21.7712 55.2807C21.4043 55.6994 21.0723 56.047 21.0335 56.0529C20.9947 56.059 20.6991 55.5938 20.3766 55.0193C19.7893 53.973 19.1793 53.3065 18.6114 53.0905C18.0779 52.8878 17.1137 52.9576 16.5588 53.2393C15.2174 53.92 6.36277 59.0966 6.06453 59.3744C5.57566 59.8296 5.30892 60.6193 5.37885 61.4041C5.4316 61.9967 6.04513 63.1092 12.1418 73.6692C15.8295 80.0565 18.9858 85.468 19.1557 85.6946C19.7557 86.4945 20.8503 86.8742 21.765 86.5998C22.3459 86.4255 32.2328 80.7273 32.7021 80.2965C33.1693 79.8673 33.5144 79.1019 33.5176 78.4875C33.5192 78.1903 33.3725 77.6811 33.1497 77.21C32.9459 76.7792 32.7791 76.404 32.7791 76.3761C32.7791 76.3483 39.6085 76.3255 47.9556 76.3255C62.7297 76.3255 63.1575 76.3189 64.0984 76.0782C67.6112 75.1798 72.0426 71.8275 77.2451 66.1329C79.6373 63.5143 80.7962 62.1351 85.7093 56.0588C89.9983 50.7541 90.5221 49.9894 90.9065 48.4708C91.8354 44.8009 89.4689 40.8262 85.5479 39.4705C82.9712 38.5797 80.1975 39.06 77.9105 40.7931C77.4892 41.1123 76.3779 42.2466 75.4411 43.3136C73.5811 45.4321 70.3593 48.9883 68.844 50.5956L67.8845 51.6134L67.7348 51.1516C67.0463 49.0261 65.4433 47.2131 63.3909 46.2384C61.8439 45.5037 61.302 45.4435 56.2166 45.441L51.6708 45.4389L51.7071 39.3543C51.7471 32.6785 51.7477 32.6727 52.5305 31.5814C53.0767 30.82 53.2121 30.7913 53.8745 31.2972C55.8367 32.7954 59.3161 33.591 62.7619 33.3294C67.1208 32.9986 70.8093 31.4127 73.4986 28.7136C76.4579 25.7433 78.2597 21.4025 79.0414 15.3606C79.3364 13.0804 79.4156 13.3003 78.0897 12.7212C74.7826 11.277 71.7681 10.4042 69.0756 10.1115C67.9422 9.98837 66.0749 9.96181 65.3953 10.059ZM70.5126 14.1708C71.1867 14.3145 72.5122 14.6894 73.4582 15.0042L75.1782 15.5766L75.0963 16.1455C74.4202 20.841 72.5088 24.8381 69.9953 26.8128C66.8403 29.2911 61.4703 30.3033 57.8171 29.1084C56.6523 28.7273 56.637 28.7091 57.1899 28.3617C57.8748 27.9313 63.1278 24.8036 65.3335 23.5127C66.3528 22.9162 67.3409 22.2847 67.5292 22.1091C68.478 21.2254 68.1457 19.5578 66.9185 19.045C66.3129 18.792 65.871 18.8388 65.1348 19.2341C64.4032 19.6268 55.7907 24.7335 55.2146 25.116L54.856 25.3542L54.9452 24.5659C55.2223 22.116 56.859 19.0954 59.0024 17.0783C60.7411 15.4421 62.4667 14.4945 64.5305 14.0425C65.9406 13.7338 68.7433 13.7938 70.5126 14.1708ZM36.1767 26.4158C37.8721 26.9499 39.4644 27.9259 40.6389 29.1509C41.2838 29.8233 41.955 30.7447 41.8653 30.8343C41.838 30.8616 39.9249 30.4549 37.614 29.9304C32.9968 28.8825 32.837 28.8707 32.0985 29.519C31.2551 30.2596 31.2197 31.4361 32.0172 32.2205C32.4627 32.6586 32.534 32.6805 36.2824 33.5237L40.0947 34.3813L39.4795 34.6604C38.2837 35.203 37.0197 35.4553 35.4354 35.4676C34.62 35.474 33.6193 35.4065 33.2116 35.3178C30.9216 34.8195 28.8362 33.2011 26.9665 30.4714L26.1949 29.3447L26.491 29.1103C28.171 27.7814 30.1364 26.7402 31.8374 26.2783C33.0045 25.9613 34.9274 26.0223 36.1767 26.4158ZM84.8323 43.2609C85.7303 43.7003 86.5807 44.5347 86.9593 45.3479C87.3266 46.1368 87.366 47.2754 87.0531 48.0618C86.8642 48.5365 84.2841 51.8312 79.6745 57.4847C76.9256 60.8559 75.1794 62.8346 72.8706 65.1942C69.4557 68.6844 67.0783 70.6175 64.7975 71.7591C62.9758 72.671 64.0278 72.6236 46.352 72.5887L30.5017 72.5573L26.7641 66.0839L23.0263 59.6105L23.5045 59.0417C25.5304 56.6322 29.1358 52.9138 30.2883 52.0454C31.5445 51.0989 33.3813 50.1642 34.9412 49.6776L36.0531 49.3306H48.5313H61.0094L61.743 49.6903C62.6757 50.1476 63.4024 50.8743 63.861 51.8082C64.1784 52.4547 64.2216 52.6763 64.2216 53.6548C64.2216 54.6049 64.1731 54.8703 63.8877 55.4793C63.4283 56.4594 62.429 57.4319 61.4998 57.8029L60.7623 58.0973L53.6528 58.1616C47.0718 58.2211 46.5178 58.2425 46.2032 58.4488C45.0778 59.1868 45.1172 60.9179 46.2754 61.6241C46.6649 61.8615 46.9113 61.8697 53.7931 61.8701C60.5206 61.8706 60.9614 61.857 61.8854 61.6216C63.8309 61.1262 64.8264 60.4552 66.8161 58.2987C67.5635 57.4886 69.3426 55.5838 70.7696 54.0658C73.5005 51.1604 75.9613 48.4646 78.1369 45.9949C79.6764 44.2471 80.2685 43.6926 80.9874 43.3253C81.8206 42.8997 82.069 42.849 83.1375 42.8866C83.9317 42.9145 84.2829 42.9921 84.8323 43.2609ZM23.2688 67.6239C26.6398 73.4634 29.1815 77.9938 29.12 78.0528C28.7774 78.3809 21.625 82.3921 21.5427 82.3022C21.3686 82.1121 9.7651 61.9511 9.71544 61.7525C9.68109 61.6145 10.6866 60.9726 13.3474 59.4344C15.3713 58.2643 17.0904 57.3053 17.1679 57.3032C17.2453 57.3011 19.9908 61.9454 23.2688 67.6239Z" fill="#77C5D5"/>
<path fill-rule="evenodd" clip-rule="evenodd" d="M65.3953 10.059C62.4555 10.4801 60.6667 11.1359 58.5568 12.566C53.7772 15.8059 50.654 21.7192 51.1974 26.5006C51.3142 27.5285 51.3096 27.564 51.0363 27.7463C50.8816 27.8494 50.4486 28.2449 50.0739 28.6251C49.1024 29.6107 48.4391 30.9571 48.0464 32.7411L47.9724 33.0774L47.0164 32.4541C46.078 31.8423 46.0586 31.8193 45.9666 31.2072C45.9149 30.8641 45.7401 30.255 45.5779 29.8536C44.2011 26.4447 40.8066 23.7189 36.4894 22.5552C35.3456 22.247 32.6326 22.1882 31.4819 22.4466C28.351 23.15 25.5482 24.7758 22.216 27.8219L21.4747 28.4994L22.0159 29.5256C23.4506 32.2448 24.5308 33.7901 26.1358 35.4185C28.7865 38.1078 31.5025 39.2616 35.183 39.2616C38.8874 39.2616 42.193 38.0779 44.4151 35.9559L44.8701 35.5213L45.355 35.9054C46.4386 36.7637 47.2001 37.8135 47.6001 39.0009C47.8243 39.6665 47.8518 40.0576 47.8518 42.5842V45.4202L41.8907 45.4728C36.3925 45.5212 35.848 45.5451 34.8794 45.7805C31.8883 46.5079 28.9733 48.0285 26.8447 49.9721C25.9253 50.8115 23.066 53.8034 21.7712 55.2807C21.4043 55.6994 21.0723 56.047 21.0335 56.0529C20.9947 56.059 20.6991 55.5938 20.3766 55.0193C19.7893 53.973 19.1793 53.3065 18.6114 53.0905C18.0779 52.8878 17.1137 52.9576 16.5588 53.2393C15.2174 53.92 6.36277 59.0966 6.06453 59.3744C5.57566 59.8296 5.30892 60.6193 5.37885 61.4041C5.4316 61.9967 6.04513 63.1092 12.1418 73.6692C15.8295 80.0565 18.9858 85.468 19.1557 85.6946C19.7557 86.4945 20.8503 86.8742 21.765 86.5998C22.3459 86.4255 32.2328 80.7273 32.7021 80.2965C33.1693 79.8673 33.5144 79.1019 33.5176 78.4875C33.5192 78.1903 33.3725 77.6811 33.1497 77.21C32.9459 76.7792 32.7791 76.404 32.7791 76.3761C32.7791 76.3483 39.6085 76.3255 47.9556 76.3255C62.7297 76.3255 63.1575 76.3189 64.0984 76.0782C67.6112 75.1798 72.0426 71.8275 77.2451 66.1329C79.6373 63.5143 80.7962 62.1351 85.7093 56.0588C89.9983 50.7541 90.5221 49.9894 90.9065 48.4708C91.8354 44.8009 89.4689 40.8262 85.5479 39.4705C82.9712 38.5797 80.1975 39.06 77.9105 40.7931C77.4892 41.1123 76.3779 42.2466 75.4411 43.3136C73.5811 45.4321 70.3593 48.9883 68.844 50.5956L67.8845 51.6134L67.7348 51.1516C67.0463 49.0261 65.4433 47.2131 63.3909 46.2384C61.8439 45.5037 61.302 45.4435 56.2166 45.441L51.6708 45.4389L51.7071 39.3543C51.7471 32.6785 51.7477 32.6727 52.5305 31.5814C53.0767 30.82 53.2121 30.7913 53.8745 31.2972C55.8367 32.7954 59.3161 33.591 62.7619 33.3294C67.1208 32.9986 70.8093 31.4127 73.4986 28.7136C76.4579 25.7433 78.2597 21.4025 79.0414 15.3606C79.3364 13.0804 79.4156 13.3003 78.0897 12.7212C74.7826 11.277 71.7681 10.4042 69.0756 10.1115C67.9422 9.98837 66.0749 9.96181 65.3953 10.059ZM70.5126 14.1708C71.1867 14.3145 72.5122 14.6894 73.4582 15.0042L75.1782 15.5766L75.0963 16.1455C74.4202 20.841 72.5088 24.8381 69.9953 26.8128C66.8403 29.2911 61.4703 30.3033 57.8171 29.1084C56.6523 28.7273 56.637 28.7091 57.1899 28.3617C57.8748 27.9313 63.1278 24.8036 65.3335 23.5127C66.3528 22.9162 67.3409 22.2847 67.5292 22.1091C68.478 21.2254 68.1457 19.5578 66.9185 19.045C66.3129 18.792 65.871 18.8388 65.1348 19.2341C64.4032 19.6268 55.7907 24.7335 55.2146 25.116L54.856 25.3542L54.9452 24.5659C55.2223 22.116 56.859 19.0954 59.0024 17.0783C60.7411 15.4421 62.4667 14.4945 64.5305 14.0425C65.9406 13.7338 68.7433 13.7938 70.5126 14.1708ZM36.1767 26.4158C37.8721 26.9499 39.4644 27.9259 40.6389 29.1509C41.2838 29.8233 41.955 30.7447 41.8653 30.8343C41.838 30.8616 39.9249 30.4549 37.614 29.9304C32.9968 28.8825 32.837 28.8707 32.0985 29.519C31.2551 30.2596 31.2197 31.4361 32.0172 32.2205C32.4627 32.6586 32.534 32.6805 36.2824 33.5237L40.0947 34.3813L39.4795 34.6604C38.2837 35.203 37.0197 35.4553 35.4354 35.4676C34.62 35.474 33.6193 35.4065 33.2116 35.3178C30.9216 34.8195 28.8362 33.2011 26.9665 30.4714L26.1949 29.3447L26.491 29.1103C28.171 27.7814 30.1364 26.7402 31.8374 26.2783C33.0045 25.9613 34.9274 26.0223 36.1767 26.4158ZM84.8323 43.2609C85.7303 43.7003 86.5807 44.5347 86.9593 45.3479C87.3266 46.1368 87.366 47.2754 87.0531 48.0618C86.8642 48.5365 84.2841 51.8312 79.6745 57.4847C76.9256 60.8559 75.1794 62.8346 72.8706 65.1942C69.4557 68.6844 67.0783 70.6175 64.7975 71.7591C62.9758 72.671 64.0278 72.6236 46.352 72.5887L30.5017 72.5573L26.7641 66.0839L23.0263 59.6105L23.5045 59.0417C25.5304 56.6322 29.1358 52.9138 30.2883 52.0454C31.5445 51.0989 33.3813 50.1642 34.9412 49.6776L36.0531 49.3306H48.5313H61.0094L61.743 49.6903C62.6757 50.1476 63.4024 50.8743 63.861 51.8082C64.1784 52.4547 64.2216 52.6763 64.2216 53.6548C64.2216 54.6049 64.1731 54.8703 63.8877 55.4793C63.4283 56.4594 62.429 57.4319 61.4998 57.8029L60.7623 58.0973L53.6528 58.1616C47.0718 58.2211 46.5178 58.2425 46.2032 58.4488C45.0778 59.1868 45.1172 60.9179 46.2754 61.6241C46.6649 61.8615 46.9113 61.8697 53.7931 61.8701C60.5206 61.8706 60.9614 61.857 61.8854 61.6216C63.8309 61.1262 64.8264 60.4552 66.8161 58.2987C67.5635 57.4886 69.3426 55.5838 70.7696 54.0658C73.5005 51.1604 75.9613 48.4646 78.1369 45.9949C79.6764 44.2471 80.2685 43.6926 80.9874 43.3253C81.8206 42.8997 82.069 42.849 83.1375 42.8866C83.9317 42.9145 84.2829 42.9921 84.8323 43.2609ZM23.2688 67.6239C26.6398 73.4634 29.1815 77.9938 29.12 78.0528C28.7774 78.3809 21.625 82.3921 21.5427 82.3022C21.3686 82.1121 9.7651 61.9511 9.71544 61.7525C9.68109 61.6145 10.6866 60.9726 13.3474 59.4344C15.3713 58.2643 17.0904 57.3053 17.1679 57.3032C17.2453 57.3011 19.9908 61.9454 23.2688 67.6239Z" stroke="#77C5D5" mask="url(#path-2-outside-1_1539_15486)"/>
</svg>
