<svg width="96" height="96" viewBox="0 0 96 96" fill="none" xmlns="http://www.w3.org/2000/svg">
<rect width="96" height="96" fill="white"/>
<path d="M52.6383 31.2607H71.7087" stroke="#77C5D5" stroke-width="5"/>
<path d="M31 28.25L35.7485 33L45 24" stroke="#77C5D5" stroke-width="5"/>
<path d="M52.6383 48.2607H71.7087" stroke="#77C5D5" stroke-width="5"/>
<path d="M31 45.25L35.7485 50L45 41" stroke="#77C5D5" stroke-width="5"/>
<path d="M52.6383 65.2607H71.7087" stroke="#77C5D5" stroke-width="5"/>
<path d="M31 62.25L35.7485 67L45 58" stroke="#77C5D5" stroke-width="5"/>
<path d="M17.0974 78.7192L77.548 78.7192C81.414 78.7192 84.548 75.5852 84.548 71.7192L84.548 16.1726L21.3604 16.1726L21.3604 74.039C21.3604 76.6238 19.265 78.7192 16.6802 78.7192V78.7192C14.0954 78.7192 12 76.6238 12 74.039L12 43.3733C12 42.8211 12.4477 42.3733 13 42.3733L19.5974 42.3733" stroke="#77C5D5" stroke-width="5"/>
</svg>
