<svg width="97" height="96" viewBox="0 0 97 96" fill="none" xmlns="http://www.w3.org/2000/svg">
<rect x="1" width="96" height="96" fill="white"/>
<mask id="path-2-outside-1_1539_15477" maskUnits="userSpaceOnUse" x="0.00439453" y="17.6086" width="97" height="64" fill="black">
<rect fill="white" x="0.00439453" y="17.6086" width="97" height="64"/>
<path d="M95.9495 45.1869L84.3638 19.4538C84.2873 19.2825 84.1779 19.1279 84.0416 18.999C83.9054 18.8701 83.7451 18.7693 83.5699 18.7024C83.3946 18.6355 83.2079 18.6038 83.0204 18.6092C82.8329 18.6146 82.6483 18.6569 82.4772 18.7338L71.2722 23.7738C71.1008 23.8505 70.9462 23.9603 70.8173 24.0969C70.6885 24.2336 70.5879 24.3943 70.5213 24.5699C70.4547 24.7455 70.4235 24.9325 70.4294 25.1203C70.4353 25.308 70.4782 25.4927 70.5557 25.6638L70.9018 26.4426C67.8284 27.4099 64.5687 27.6306 61.393 27.0865C59.2649 26.7317 57.0929 26.7317 54.9649 27.0865C53.2596 27.3644 51.5979 27.8636 50.0218 28.5715C49.3295 28.9176 48.6095 29.2638 47.8791 29.7138L41.7729 32.708C40.8243 32.5195 39.8627 32.4037 38.8964 32.3618C35.6388 32.2651 32.4533 31.3802 29.6125 29.783L30.0798 29.1461C30.3008 28.8384 30.3906 28.4557 30.3296 28.0818C30.2686 27.708 30.0618 27.3737 29.7544 27.1522L19.761 19.9591C19.4528 19.738 19.0695 19.6481 18.6951 19.709C18.3207 19.77 17.9857 19.977 17.7637 20.2845L1.27286 43.1896C1.0519 43.4972 0.962059 43.88 1.02307 44.2538C1.08407 44.6276 1.29094 44.962 1.59825 45.1834L11.5744 52.373C11.7264 52.4831 11.8986 52.562 12.0811 52.6054C12.2636 52.6488 12.4529 52.6557 12.6381 52.6258C12.8234 52.5959 13.0009 52.5298 13.1605 52.4311C13.3201 52.3325 13.4587 52.2034 13.5683 52.0511L14.046 51.3865C16.4538 53.5775 18.2999 56.3152 19.4287 59.3688C19.5221 59.618 19.626 59.8638 19.7333 60.1096L18.1617 62.2904C17.6617 62.9751 17.3511 63.7796 17.2612 64.6227C17.1714 65.4658 17.3054 66.3177 17.6497 67.0924C17.9941 67.8672 18.5367 68.5375 19.2228 69.0357C19.9089 69.5339 20.7142 69.8423 21.5575 69.93C21.5593 70.177 21.5802 70.4235 21.6198 70.6673C21.8038 71.8033 22.3842 72.8375 23.2579 73.5864C24.1317 74.3354 25.2425 74.7507 26.3933 74.7588C26.5274 74.7588 26.6614 74.7519 26.7948 74.7381C27.0603 75.7822 27.6642 76.7089 28.5122 77.3734C29.3602 78.0379 30.4045 78.4027 31.4818 78.4108C31.992 78.408 32.4988 78.3263 32.9841 78.1685C33.3731 79.0063 33.9923 79.7164 34.7694 80.2158C35.5465 80.7153 36.4495 80.9837 37.3733 80.9896C37.6426 80.9895 37.9114 80.9651 38.1764 80.9169C38.8077 80.8214 39.4132 80.5996 39.9568 80.2648C40.5004 79.9299 40.9709 79.4889 41.3402 78.9681L42.2991 77.6388L46.941 80.3077C47.7441 80.7602 48.65 80.9986 49.5718 81C50.2934 80.9971 51.0068 80.8467 51.6682 80.558C52.3295 80.2693 52.9248 79.8484 53.4176 79.3211C53.9637 78.7019 54.3489 77.9577 54.5391 77.1542C55.4984 77.4585 56.5157 77.5332 57.5091 77.3723C58.32 77.2418 59.0971 76.9523 59.7957 76.5205C60.4944 76.0886 61.1007 75.5228 61.5799 74.8558C62.2155 73.9652 62.6102 72.9254 62.7256 71.8373C62.7782 71.3593 62.77 70.8767 62.7014 70.4007C63.5579 70.3649 64.3972 70.1491 65.1648 69.7674C65.9324 69.3857 66.611 68.8467 67.1564 68.1854C68.0904 67.0644 68.5991 65.6498 68.593 64.1907C68.9507 64.1908 69.3081 64.1665 69.6626 64.118C70.3194 64.0133 70.9486 63.7784 71.5133 63.4271C72.078 63.0758 72.5668 62.6152 72.951 62.0723C73.6092 61.1441 74.0202 60.0636 74.1453 58.9327C74.1453 58.8461 74.1453 58.7596 74.1453 58.6765C74.4499 58.2646 74.7476 57.8319 75.0314 57.3992C76.7239 54.6623 79.0481 52.3712 81.8091 50.7184L82.1138 51.4107C82.2694 51.7563 82.556 52.0259 82.9104 52.1603C83.2648 52.2947 83.6581 52.2828 84.0038 52.1273L95.2261 47.0907C95.3995 47.0143 95.556 46.9042 95.6865 46.7668C95.817 46.6294 95.9189 46.4673 95.9862 46.2902C96.0536 46.113 96.085 45.9243 96.0787 45.7348C96.0724 45.5454 96.0285 45.3592 95.9495 45.1869ZM19.4044 23.8707L26.1717 28.7411L12.3429 47.9284L11.9967 48.4373L5.20864 43.5669L19.4044 23.8707ZM20.9379 64.2877L21.426 63.6196L23.2017 61.1965C23.3208 61.0321 23.4735 60.895 23.6497 60.7942C23.8258 60.6934 24.0215 60.6313 24.2235 60.612C24.4255 60.5926 24.6294 60.6166 24.8215 60.6821C25.0135 60.7477 25.1895 60.8534 25.3375 60.9923C25.4908 61.1448 25.6083 61.3296 25.6813 61.5331C25.7544 61.7367 25.7812 61.954 25.7598 62.1692C25.7367 62.4104 25.6521 62.6416 25.5141 62.8407L23.2121 66.0357C22.9828 66.3237 22.6517 66.5126 22.2871 66.5634C21.9225 66.6143 21.5523 66.5233 21.2529 66.3092C20.9476 66.0795 20.7439 65.7398 20.6851 65.3624C20.6263 64.9849 20.717 64.5993 20.9379 64.2877ZM25.5798 71.0827C25.2698 70.8632 25.0593 70.5298 24.9944 70.1555C24.9295 69.7812 25.0155 69.3964 25.2337 69.0854L28.2798 64.8554H28.3006L30.2737 62.1277C30.3808 61.9733 30.5178 61.842 30.6765 61.7416C30.8353 61.6411 31.0126 61.5734 31.1979 61.5427C31.3841 61.5081 31.5753 61.512 31.7599 61.5543C31.9445 61.5966 32.1184 61.6763 32.271 61.7884C32.4482 61.9173 32.5934 62.0851 32.6954 62.2789C32.7975 62.4728 32.8536 62.6875 32.8594 62.9065C32.8594 62.9619 32.8594 63.0207 32.8594 63.0796C32.8368 63.2742 32.7731 63.4618 32.6725 63.63C32.6448 63.668 32.6171 63.6992 32.5894 63.7338L27.5598 70.7157C27.5356 70.7504 27.5148 70.785 27.4941 70.8196C27.2661 71.1011 26.9393 71.285 26.5804 71.3339C26.2215 71.3828 25.8575 71.293 25.5625 71.0827H25.5798ZM30.696 74.7346C30.5347 74.6311 30.3966 74.4951 30.2905 74.3354C30.1845 74.1757 30.1127 73.9958 30.0798 73.8069C30.0206 73.4749 30.0846 73.1328 30.2598 72.8446C30.2875 72.81 30.3187 72.7754 30.3464 72.7373L35.376 65.7727C35.4198 65.7112 35.4684 65.6533 35.5214 65.5996C35.5763 65.5497 35.6354 65.5046 35.6979 65.4646C35.729 65.443 35.7613 65.4233 35.7948 65.4057C35.8426 65.3769 35.8924 65.3515 35.9437 65.3296L35.9956 65.3088C36.0799 65.2773 36.1668 65.253 36.2552 65.2361C36.3444 65.2209 36.4348 65.2139 36.5252 65.2154H36.5702C36.764 65.225 36.9538 65.2743 37.1278 65.3601C37.3018 65.446 37.4563 65.5666 37.5818 65.7145C37.7074 65.8624 37.8013 66.0345 37.8577 66.2202C37.9141 66.4058 37.9319 66.601 37.9098 66.7938C37.8836 67.0446 37.7903 67.2838 37.6398 67.4861L35.8606 69.9473C35.7948 70.0269 35.7291 70.1031 35.6668 70.1861L33.4271 73.3015C33.3357 73.4271 33.2514 73.5577 33.1744 73.6927L32.6483 74.4196C32.4247 74.7169 32.0944 74.9159 31.7271 74.9747C31.3597 75.0334 30.9839 74.9474 30.6787 74.7346H30.696ZM37.6571 77.5592C37.3777 77.606 37.0907 77.5691 36.8322 77.4532C36.5737 77.3373 36.3553 77.1475 36.2043 76.9078C36.0534 76.6681 35.9767 76.389 35.9839 76.1058C35.9911 75.8226 36.0819 75.5479 36.2448 75.3161L38.4845 72.2007C38.7067 71.8935 39.0391 71.6839 39.4122 71.6158C39.5013 71.6002 39.5917 71.5933 39.6822 71.595H39.7514C39.8129 71.5985 39.8741 71.6054 39.9348 71.6158L40.0075 71.6331C40.1773 71.6789 40.3377 71.7538 40.4818 71.8546C40.6858 72.0027 40.8473 72.2019 40.95 72.4322C41.0527 72.6625 41.093 72.9157 41.0668 73.1665C41.0387 73.4163 40.9469 73.6547 40.8002 73.8588L39.7029 75.3923L38.5814 76.9535C38.4742 77.1134 38.3353 77.2497 38.1734 77.3539C38.0114 77.4581 37.8298 77.528 37.6398 77.5592H37.6571ZM70.6976 58.59C70.6488 59.1267 70.455 59.64 70.1368 60.075C69.8768 60.4222 69.4944 60.6573 69.0672 60.7327C68.855 60.7691 68.6376 60.7621 68.4282 60.7121C68.2187 60.6622 68.0216 60.5702 67.8487 60.4419L66.1803 59.2442C66.111 59.1711 66.0358 59.1039 65.9553 59.0434L62.2306 56.3642C61.8625 56.1296 61.4186 56.0446 60.9899 56.1267C60.5611 56.2089 60.18 56.4519 59.9247 56.8059C59.6693 57.16 59.559 57.5983 59.6164 58.031C59.6738 58.4638 59.8945 58.8582 60.2333 59.1334L63.9545 61.8092L63.9372 61.8369C64.2569 62.0615 64.5259 62.3508 64.7268 62.6859C64.9277 63.0209 65.0561 63.3945 65.1037 63.7823C65.1542 64.172 65.124 64.5679 65.0151 64.9454C64.9061 65.323 64.7207 65.674 64.4703 65.9769C63.9748 66.5287 63.2918 66.8765 62.5541 66.9527C61.8164 67.0288 61.0768 66.8278 60.4791 66.3888L60.3753 66.3127C60.2968 66.2235 60.2085 66.1433 60.1122 66.0738L55.5118 62.7611C55.1437 62.5265 54.6998 62.4416 54.271 62.5237C53.8423 62.6058 53.4612 62.8488 53.2058 63.2028C52.9505 63.5569 52.8402 63.9952 52.8976 64.4279C52.955 64.8607 53.1757 65.2551 53.5145 65.5304L58.1183 68.8534L58.146 68.8811C58.5418 69.1823 58.8544 69.5793 59.0542 70.0348C59.2541 70.4902 59.3346 70.989 59.2883 71.4842C59.2397 71.9801 59.0606 72.4543 58.7692 72.8585C58.4779 73.2627 58.0847 73.5826 57.6296 73.7855C57.1745 73.9884 56.6738 74.0672 56.1783 74.0138C55.6829 73.9604 55.2105 73.7768 54.8091 73.4815L52.5695 71.8511L48.2114 68.7081C48.0307 68.5612 47.8219 68.4529 47.5978 68.3896C47.3738 68.3263 47.1392 68.3095 46.9083 68.3401C46.6775 68.3707 46.4554 68.4481 46.2556 68.5676C46.0558 68.6871 45.8824 68.8461 45.7462 69.035C45.61 69.2238 45.5138 69.4384 45.4635 69.6658C45.4132 69.8931 45.4099 70.1283 45.4537 70.357C45.4975 70.5856 45.5875 70.803 45.7183 70.9956C45.849 71.1882 46.0177 71.3522 46.2141 71.4773L50.5722 74.6169C50.7557 74.7514 50.909 74.9229 51.0223 75.1202C51.1355 75.3175 51.2063 75.5364 51.2299 75.7627C51.2656 75.9935 51.249 76.2293 51.1813 76.4528C51.1136 76.6763 50.9965 76.8817 50.8387 77.0538C50.5631 77.3404 50.1972 77.5233 49.8026 77.5719C49.4079 77.6204 49.0086 77.5316 48.6718 77.3204L44.1925 74.7415C44.2576 74.5715 44.3097 74.3967 44.3483 74.2188C44.4087 73.9818 44.455 73.7414 44.4868 73.4988C44.5991 72.3768 44.318 71.2506 43.6916 70.3129C43.0652 69.3752 42.1325 68.6843 41.0529 68.3584C41.2125 67.9444 41.3184 67.5117 41.3679 67.0707C41.4497 66.2226 41.3088 65.3678 40.9591 64.5907C40.6094 63.8137 40.0631 63.1413 39.3741 62.64C38.4408 61.9701 37.2999 61.6536 36.1548 61.7469C35.8607 60.5683 35.1346 59.5431 34.1204 58.8744C33.1062 58.2058 31.8779 57.9424 30.6787 58.1365C29.8241 58.2638 29.0207 58.623 28.356 59.175L28.3179 59.2061C28.007 58.7584 27.6204 58.3684 27.1756 58.0534C26.6621 57.6782 26.0789 57.4093 25.4601 57.2625C24.8413 57.1157 24.1994 57.0939 23.5721 57.1984C23.1389 57.2741 22.7175 57.4068 22.319 57.593C20.9377 54.1683 18.7785 51.1119 16.0121 48.6657L27.5737 32.6145C29.9057 33.9943 32.4681 34.9407 35.1371 35.408L33.6764 49.7976C33.6213 50.311 33.6684 50.8302 33.815 51.3252C33.9615 51.8203 34.2047 52.2814 34.5303 52.6821C34.856 53.0827 35.2577 53.4149 35.7124 53.6595C36.1671 53.9041 36.6657 54.0563 37.1795 54.1073C38.6643 54.2695 40.1634 53.9774 41.4787 53.2696C41.9314 53.0324 42.3593 52.7506 42.756 52.4284C43.5355 51.8095 44.1824 51.04 44.6581 50.1658C45.1339 49.2916 45.4288 48.3306 45.5252 47.3399L45.9129 43.5876C47.6286 43.51 49.3075 43.0637 50.8352 42.2792C51.0499 42.1719 51.261 42.0542 51.4687 41.933L69.5068 55.8588C69.628 55.9557 69.7283 56.0284 69.7768 56.0769L69.801 56.1011C69.8253 56.1253 69.8737 56.1496 69.898 56.198L69.9464 56.2465C69.9707 56.2465 69.9707 56.2707 69.9949 56.295L70.0434 56.3434L70.116 56.4161L70.1887 56.513C70.213 56.5373 70.2372 56.5892 70.2614 56.6134C70.3185 56.6973 70.3672 56.7866 70.4068 56.88L70.431 56.9284C70.4587 56.9769 70.4587 57.0011 70.483 57.0496C70.5072 57.098 70.5072 57.1465 70.5314 57.195C70.5557 57.2434 70.5557 57.2953 70.5799 57.3438L70.6283 57.4892C70.662 57.6024 70.6864 57.7182 70.701 57.8353V57.8838C70.7229 57.9387 70.7313 57.9981 70.7253 58.0569V58.2023C70.7383 58.3332 70.7229 58.4655 70.6803 58.59H70.6976ZM80.4107 47.5857C77.4571 49.2958 74.9116 51.6287 72.951 54.4223V54.4015C72.9026 54.3288 72.8299 54.2561 72.7814 54.1834C72.733 54.1107 72.6118 53.9896 72.5114 53.8926L72.2691 53.6469C72.0848 53.4654 71.8894 53.2955 71.6841 53.138L51.6072 37.6511L50.5687 38.4299C48.8515 39.7352 46.7013 40.3368 44.556 40.1122L42.8495 39.9392L42.1572 46.9765C42.038 48.0709 41.4965 49.0756 40.6479 49.7769C39.7927 50.4677 38.6986 50.7913 37.6052 50.6769C37.5376 50.6722 37.4717 50.6538 37.4114 50.623C37.3511 50.5921 37.2977 50.5493 37.2543 50.4973C37.211 50.4452 37.1786 50.3849 37.1592 50.32C37.1398 50.2551 37.1337 50.1869 37.1414 50.1196L38.3598 38.1634L47.1002 33.9022H47.0275L49.4506 32.7011L49.5995 32.6284C50.1978 32.2714 50.8149 31.9467 51.4479 31.6557C52.7471 31.0525 54.1243 30.6342 55.5395 30.413C57.3045 30.1222 59.1052 30.1222 60.8703 30.413C64.6897 31.0793 68.6149 30.7867 72.2934 29.5615L73.8891 33.1061L80.4107 47.5857ZM84.4261 48.1949L74.4672 26.0618L82.0826 22.6557L92.0415 44.7853L84.4261 48.1949Z"/>
</mask>
<path d="M95.9495 45.1869L84.3638 19.4538C84.2873 19.2825 84.1779 19.1279 84.0416 18.999C83.9054 18.8701 83.7451 18.7693 83.5699 18.7024C83.3946 18.6355 83.2079 18.6038 83.0204 18.6092C82.8329 18.6146 82.6483 18.6569 82.4772 18.7338L71.2722 23.7738C71.1008 23.8505 70.9462 23.9603 70.8173 24.0969C70.6885 24.2336 70.5879 24.3943 70.5213 24.5699C70.4547 24.7455 70.4235 24.9325 70.4294 25.1203C70.4353 25.308 70.4782 25.4927 70.5557 25.6638L70.9018 26.4426C67.8284 27.4099 64.5687 27.6306 61.393 27.0865C59.2649 26.7317 57.0929 26.7317 54.9649 27.0865C53.2596 27.3644 51.5979 27.8636 50.0218 28.5715C49.3295 28.9176 48.6095 29.2638 47.8791 29.7138L41.7729 32.708C40.8243 32.5195 39.8627 32.4037 38.8964 32.3618C35.6388 32.2651 32.4533 31.3802 29.6125 29.783L30.0798 29.1461C30.3008 28.8384 30.3906 28.4557 30.3296 28.0818C30.2686 27.708 30.0618 27.3737 29.7544 27.1522L19.761 19.9591C19.4528 19.738 19.0695 19.6481 18.6951 19.709C18.3207 19.77 17.9857 19.977 17.7637 20.2845L1.27286 43.1896C1.0519 43.4972 0.962059 43.88 1.02307 44.2538C1.08407 44.6276 1.29094 44.962 1.59825 45.1834L11.5744 52.373C11.7264 52.4831 11.8986 52.562 12.0811 52.6054C12.2636 52.6488 12.4529 52.6557 12.6381 52.6258C12.8234 52.5959 13.0009 52.5298 13.1605 52.4311C13.3201 52.3325 13.4587 52.2034 13.5683 52.0511L14.046 51.3865C16.4538 53.5775 18.2999 56.3152 19.4287 59.3688C19.5221 59.618 19.626 59.8638 19.7333 60.1096L18.1617 62.2904C17.6617 62.9751 17.3511 63.7796 17.2612 64.6227C17.1714 65.4658 17.3054 66.3177 17.6497 67.0924C17.9941 67.8672 18.5367 68.5375 19.2228 69.0357C19.9089 69.5339 20.7142 69.8423 21.5575 69.93C21.5593 70.177 21.5802 70.4235 21.6198 70.6673C21.8038 71.8033 22.3842 72.8375 23.2579 73.5864C24.1317 74.3354 25.2425 74.7507 26.3933 74.7588C26.5274 74.7588 26.6614 74.7519 26.7948 74.7381C27.0603 75.7822 27.6642 76.7089 28.5122 77.3734C29.3602 78.0379 30.4045 78.4027 31.4818 78.4108C31.992 78.408 32.4988 78.3263 32.9841 78.1685C33.3731 79.0063 33.9923 79.7164 34.7694 80.2158C35.5465 80.7153 36.4495 80.9837 37.3733 80.9896C37.6426 80.9895 37.9114 80.9651 38.1764 80.9169C38.8077 80.8214 39.4132 80.5996 39.9568 80.2648C40.5004 79.9299 40.9709 79.4889 41.3402 78.9681L42.2991 77.6388L46.941 80.3077C47.7441 80.7602 48.65 80.9986 49.5718 81C50.2934 80.9971 51.0068 80.8467 51.6682 80.558C52.3295 80.2693 52.9248 79.8484 53.4176 79.3211C53.9637 78.7019 54.3489 77.9577 54.5391 77.1542C55.4984 77.4585 56.5157 77.5332 57.5091 77.3723C58.32 77.2418 59.0971 76.9523 59.7957 76.5205C60.4944 76.0886 61.1007 75.5228 61.5799 74.8558C62.2155 73.9652 62.6102 72.9254 62.7256 71.8373C62.7782 71.3593 62.77 70.8767 62.7014 70.4007C63.5579 70.3649 64.3972 70.1491 65.1648 69.7674C65.9324 69.3857 66.611 68.8467 67.1564 68.1854C68.0904 67.0644 68.5991 65.6498 68.593 64.1907C68.9507 64.1908 69.3081 64.1665 69.6626 64.118C70.3194 64.0133 70.9486 63.7784 71.5133 63.4271C72.078 63.0758 72.5668 62.6152 72.951 62.0723C73.6092 61.1441 74.0202 60.0636 74.1453 58.9327C74.1453 58.8461 74.1453 58.7596 74.1453 58.6765C74.4499 58.2646 74.7476 57.8319 75.0314 57.3992C76.7239 54.6623 79.0481 52.3712 81.8091 50.7184L82.1138 51.4107C82.2694 51.7563 82.556 52.0259 82.9104 52.1603C83.2648 52.2947 83.6581 52.2828 84.0038 52.1273L95.2261 47.0907C95.3995 47.0143 95.556 46.9042 95.6865 46.7668C95.817 46.6294 95.9189 46.4673 95.9862 46.2902C96.0536 46.113 96.085 45.9243 96.0787 45.7348C96.0724 45.5454 96.0285 45.3592 95.9495 45.1869ZM19.4044 23.8707L26.1717 28.7411L12.3429 47.9284L11.9967 48.4373L5.20864 43.5669L19.4044 23.8707ZM20.9379 64.2877L21.426 63.6196L23.2017 61.1965C23.3208 61.0321 23.4735 60.895 23.6497 60.7942C23.8258 60.6934 24.0215 60.6313 24.2235 60.612C24.4255 60.5926 24.6294 60.6166 24.8215 60.6821C25.0135 60.7477 25.1895 60.8534 25.3375 60.9923C25.4908 61.1448 25.6083 61.3296 25.6813 61.5331C25.7544 61.7367 25.7812 61.954 25.7598 62.1692C25.7367 62.4104 25.6521 62.6416 25.5141 62.8407L23.2121 66.0357C22.9828 66.3237 22.6517 66.5126 22.2871 66.5634C21.9225 66.6143 21.5523 66.5233 21.2529 66.3092C20.9476 66.0795 20.7439 65.7398 20.6851 65.3624C20.6263 64.9849 20.717 64.5993 20.9379 64.2877ZM25.5798 71.0827C25.2698 70.8632 25.0593 70.5298 24.9944 70.1555C24.9295 69.7812 25.0155 69.3964 25.2337 69.0854L28.2798 64.8554H28.3006L30.2737 62.1277C30.3808 61.9733 30.5178 61.842 30.6765 61.7416C30.8353 61.6411 31.0126 61.5734 31.1979 61.5427C31.3841 61.5081 31.5753 61.512 31.7599 61.5543C31.9445 61.5966 32.1184 61.6763 32.271 61.7884C32.4482 61.9173 32.5934 62.0851 32.6954 62.2789C32.7975 62.4728 32.8536 62.6875 32.8594 62.9065C32.8594 62.9619 32.8594 63.0207 32.8594 63.0796C32.8368 63.2742 32.7731 63.4618 32.6725 63.63C32.6448 63.668 32.6171 63.6992 32.5894 63.7338L27.5598 70.7157C27.5356 70.7504 27.5148 70.785 27.4941 70.8196C27.2661 71.1011 26.9393 71.285 26.5804 71.3339C26.2215 71.3828 25.8575 71.293 25.5625 71.0827H25.5798ZM30.696 74.7346C30.5347 74.6311 30.3966 74.4951 30.2905 74.3354C30.1845 74.1757 30.1127 73.9958 30.0798 73.8069C30.0206 73.4749 30.0846 73.1328 30.2598 72.8446C30.2875 72.81 30.3187 72.7754 30.3464 72.7373L35.376 65.7727C35.4198 65.7112 35.4684 65.6533 35.5214 65.5996C35.5763 65.5497 35.6354 65.5046 35.6979 65.4646C35.729 65.443 35.7613 65.4233 35.7948 65.4057C35.8426 65.3769 35.8924 65.3515 35.9437 65.3296L35.9956 65.3088C36.0799 65.2773 36.1668 65.253 36.2552 65.2361C36.3444 65.2209 36.4348 65.2139 36.5252 65.2154H36.5702C36.764 65.225 36.9538 65.2743 37.1278 65.3601C37.3018 65.446 37.4563 65.5666 37.5818 65.7145C37.7074 65.8624 37.8013 66.0345 37.8577 66.2202C37.9141 66.4058 37.9319 66.601 37.9098 66.7938C37.8836 67.0446 37.7903 67.2838 37.6398 67.4861L35.8606 69.9473C35.7948 70.0269 35.7291 70.1031 35.6668 70.1861L33.4271 73.3015C33.3357 73.4271 33.2514 73.5577 33.1744 73.6927L32.6483 74.4196C32.4247 74.7169 32.0944 74.9159 31.7271 74.9747C31.3597 75.0334 30.9839 74.9474 30.6787 74.7346H30.696ZM37.6571 77.5592C37.3777 77.606 37.0907 77.5691 36.8322 77.4532C36.5737 77.3373 36.3553 77.1475 36.2043 76.9078C36.0534 76.6681 35.9767 76.389 35.9839 76.1058C35.9911 75.8226 36.0819 75.5479 36.2448 75.3161L38.4845 72.2007C38.7067 71.8935 39.0391 71.6839 39.4122 71.6158C39.5013 71.6002 39.5917 71.5933 39.6822 71.595H39.7514C39.8129 71.5985 39.8741 71.6054 39.9348 71.6158L40.0075 71.6331C40.1773 71.6789 40.3377 71.7538 40.4818 71.8546C40.6858 72.0027 40.8473 72.2019 40.95 72.4322C41.0527 72.6625 41.093 72.9157 41.0668 73.1665C41.0387 73.4163 40.9469 73.6547 40.8002 73.8588L39.7029 75.3923L38.5814 76.9535C38.4742 77.1134 38.3353 77.2497 38.1734 77.3539C38.0114 77.4581 37.8298 77.528 37.6398 77.5592H37.6571ZM70.6976 58.59C70.6488 59.1267 70.455 59.64 70.1368 60.075C69.8768 60.4222 69.4944 60.6573 69.0672 60.7327C68.855 60.7691 68.6376 60.7621 68.4282 60.7121C68.2187 60.6622 68.0216 60.5702 67.8487 60.4419L66.1803 59.2442C66.111 59.1711 66.0358 59.1039 65.9553 59.0434L62.2306 56.3642C61.8625 56.1296 61.4186 56.0446 60.9899 56.1267C60.5611 56.2089 60.18 56.4519 59.9247 56.8059C59.6693 57.16 59.559 57.5983 59.6164 58.031C59.6738 58.4638 59.8945 58.8582 60.2333 59.1334L63.9545 61.8092L63.9372 61.8369C64.2569 62.0615 64.5259 62.3508 64.7268 62.6859C64.9277 63.0209 65.0561 63.3945 65.1037 63.7823C65.1542 64.172 65.124 64.5679 65.0151 64.9454C64.9061 65.323 64.7207 65.674 64.4703 65.9769C63.9748 66.5287 63.2918 66.8765 62.5541 66.9527C61.8164 67.0288 61.0768 66.8278 60.4791 66.3888L60.3753 66.3127C60.2968 66.2235 60.2085 66.1433 60.1122 66.0738L55.5118 62.7611C55.1437 62.5265 54.6998 62.4416 54.271 62.5237C53.8423 62.6058 53.4612 62.8488 53.2058 63.2028C52.9505 63.5569 52.8402 63.9952 52.8976 64.4279C52.955 64.8607 53.1757 65.2551 53.5145 65.5304L58.1183 68.8534L58.146 68.8811C58.5418 69.1823 58.8544 69.5793 59.0542 70.0348C59.2541 70.4902 59.3346 70.989 59.2883 71.4842C59.2397 71.9801 59.0606 72.4543 58.7692 72.8585C58.4779 73.2627 58.0847 73.5826 57.6296 73.7855C57.1745 73.9884 56.6738 74.0672 56.1783 74.0138C55.6829 73.9604 55.2105 73.7768 54.8091 73.4815L52.5695 71.8511L48.2114 68.7081C48.0307 68.5612 47.8219 68.4529 47.5978 68.3896C47.3738 68.3263 47.1392 68.3095 46.9083 68.3401C46.6775 68.3707 46.4554 68.4481 46.2556 68.5676C46.0558 68.6871 45.8824 68.8461 45.7462 69.035C45.61 69.2238 45.5138 69.4384 45.4635 69.6658C45.4132 69.8931 45.4099 70.1283 45.4537 70.357C45.4975 70.5856 45.5875 70.803 45.7183 70.9956C45.849 71.1882 46.0177 71.3522 46.2141 71.4773L50.5722 74.6169C50.7557 74.7514 50.909 74.9229 51.0223 75.1202C51.1355 75.3175 51.2063 75.5364 51.2299 75.7627C51.2656 75.9935 51.249 76.2293 51.1813 76.4528C51.1136 76.6763 50.9965 76.8817 50.8387 77.0538C50.5631 77.3404 50.1972 77.5233 49.8026 77.5719C49.4079 77.6204 49.0086 77.5316 48.6718 77.3204L44.1925 74.7415C44.2576 74.5715 44.3097 74.3967 44.3483 74.2188C44.4087 73.9818 44.455 73.7414 44.4868 73.4988C44.5991 72.3768 44.318 71.2506 43.6916 70.3129C43.0652 69.3752 42.1325 68.6843 41.0529 68.3584C41.2125 67.9444 41.3184 67.5117 41.3679 67.0707C41.4497 66.2226 41.3088 65.3678 40.9591 64.5907C40.6094 63.8137 40.0631 63.1413 39.3741 62.64C38.4408 61.9701 37.2999 61.6536 36.1548 61.7469C35.8607 60.5683 35.1346 59.5431 34.1204 58.8744C33.1062 58.2058 31.8779 57.9424 30.6787 58.1365C29.8241 58.2638 29.0207 58.623 28.356 59.175L28.3179 59.2061C28.007 58.7584 27.6204 58.3684 27.1756 58.0534C26.6621 57.6782 26.0789 57.4093 25.4601 57.2625C24.8413 57.1157 24.1994 57.0939 23.5721 57.1984C23.1389 57.2741 22.7175 57.4068 22.319 57.593C20.9377 54.1683 18.7785 51.1119 16.0121 48.6657L27.5737 32.6145C29.9057 33.9943 32.4681 34.9407 35.1371 35.408L33.6764 49.7976C33.6213 50.311 33.6684 50.8302 33.815 51.3252C33.9615 51.8203 34.2047 52.2814 34.5303 52.6821C34.856 53.0827 35.2577 53.4149 35.7124 53.6595C36.1671 53.9041 36.6657 54.0563 37.1795 54.1073C38.6643 54.2695 40.1634 53.9774 41.4787 53.2696C41.9314 53.0324 42.3593 52.7506 42.756 52.4284C43.5355 51.8095 44.1824 51.04 44.6581 50.1658C45.1339 49.2916 45.4288 48.3306 45.5252 47.3399L45.9129 43.5876C47.6286 43.51 49.3075 43.0637 50.8352 42.2792C51.0499 42.1719 51.261 42.0542 51.4687 41.933L69.5068 55.8588C69.628 55.9557 69.7283 56.0284 69.7768 56.0769L69.801 56.1011C69.8253 56.1253 69.8737 56.1496 69.898 56.198L69.9464 56.2465C69.9707 56.2465 69.9707 56.2707 69.9949 56.295L70.0434 56.3434L70.116 56.4161L70.1887 56.513C70.213 56.5373 70.2372 56.5892 70.2614 56.6134C70.3185 56.6973 70.3672 56.7866 70.4068 56.88L70.431 56.9284C70.4587 56.9769 70.4587 57.0011 70.483 57.0496C70.5072 57.098 70.5072 57.1465 70.5314 57.195C70.5557 57.2434 70.5557 57.2953 70.5799 57.3438L70.6283 57.4892C70.662 57.6024 70.6864 57.7182 70.701 57.8353V57.8838C70.7229 57.9387 70.7313 57.9981 70.7253 58.0569V58.2023C70.7383 58.3332 70.7229 58.4655 70.6803 58.59H70.6976ZM80.4107 47.5857C77.4571 49.2958 74.9116 51.6287 72.951 54.4223V54.4015C72.9026 54.3288 72.8299 54.2561 72.7814 54.1834C72.733 54.1107 72.6118 53.9896 72.5114 53.8926L72.2691 53.6469C72.0848 53.4654 71.8894 53.2955 71.6841 53.138L51.6072 37.6511L50.5687 38.4299C48.8515 39.7352 46.7013 40.3368 44.556 40.1122L42.8495 39.9392L42.1572 46.9765C42.038 48.0709 41.4965 49.0756 40.6479 49.7769C39.7927 50.4677 38.6986 50.7913 37.6052 50.6769C37.5376 50.6722 37.4717 50.6538 37.4114 50.623C37.3511 50.5921 37.2977 50.5493 37.2543 50.4973C37.211 50.4452 37.1786 50.3849 37.1592 50.32C37.1398 50.2551 37.1337 50.1869 37.1414 50.1196L38.3598 38.1634L47.1002 33.9022H47.0275L49.4506 32.7011L49.5995 32.6284C50.1978 32.2714 50.8149 31.9467 51.4479 31.6557C52.7471 31.0525 54.1243 30.6342 55.5395 30.413C57.3045 30.1222 59.1052 30.1222 60.8703 30.413C64.6897 31.0793 68.6149 30.7867 72.2934 29.5615L73.8891 33.1061L80.4107 47.5857ZM84.4261 48.1949L74.4672 26.0618L82.0826 22.6557L92.0415 44.7853L84.4261 48.1949Z" fill="#77C5D5"/>
<path d="M95.9495 45.1869L84.3638 19.4538C84.2873 19.2825 84.1779 19.1279 84.0416 18.999C83.9054 18.8701 83.7451 18.7693 83.5699 18.7024C83.3946 18.6355 83.2079 18.6038 83.0204 18.6092C82.8329 18.6146 82.6483 18.6569 82.4772 18.7338L71.2722 23.7738C71.1008 23.8505 70.9462 23.9603 70.8173 24.0969C70.6885 24.2336 70.5879 24.3943 70.5213 24.5699C70.4547 24.7455 70.4235 24.9325 70.4294 25.1203C70.4353 25.308 70.4782 25.4927 70.5557 25.6638L70.9018 26.4426C67.8284 27.4099 64.5687 27.6306 61.393 27.0865C59.2649 26.7317 57.0929 26.7317 54.9649 27.0865C53.2596 27.3644 51.5979 27.8636 50.0218 28.5715C49.3295 28.9176 48.6095 29.2638 47.8791 29.7138L41.7729 32.708C40.8243 32.5195 39.8627 32.4037 38.8964 32.3618C35.6388 32.2651 32.4533 31.3802 29.6125 29.783L30.0798 29.1461C30.3008 28.8384 30.3906 28.4557 30.3296 28.0818C30.2686 27.708 30.0618 27.3737 29.7544 27.1522L19.761 19.9591C19.4528 19.738 19.0695 19.6481 18.6951 19.709C18.3207 19.77 17.9857 19.977 17.7637 20.2845L1.27286 43.1896C1.0519 43.4972 0.962059 43.88 1.02307 44.2538C1.08407 44.6276 1.29094 44.962 1.59825 45.1834L11.5744 52.373C11.7264 52.4831 11.8986 52.562 12.0811 52.6054C12.2636 52.6488 12.4529 52.6557 12.6381 52.6258C12.8234 52.5959 13.0009 52.5298 13.1605 52.4311C13.3201 52.3325 13.4587 52.2034 13.5683 52.0511L14.046 51.3865C16.4538 53.5775 18.2999 56.3152 19.4287 59.3688C19.5221 59.618 19.626 59.8638 19.7333 60.1096L18.1617 62.2904C17.6617 62.9751 17.3511 63.7796 17.2612 64.6227C17.1714 65.4658 17.3054 66.3177 17.6497 67.0924C17.9941 67.8672 18.5367 68.5375 19.2228 69.0357C19.9089 69.5339 20.7142 69.8423 21.5575 69.93C21.5593 70.177 21.5802 70.4235 21.6198 70.6673C21.8038 71.8033 22.3842 72.8375 23.2579 73.5864C24.1317 74.3354 25.2425 74.7507 26.3933 74.7588C26.5274 74.7588 26.6614 74.7519 26.7948 74.7381C27.0603 75.7822 27.6642 76.7089 28.5122 77.3734C29.3602 78.0379 30.4045 78.4027 31.4818 78.4108C31.992 78.408 32.4988 78.3263 32.9841 78.1685C33.3731 79.0063 33.9923 79.7164 34.7694 80.2158C35.5465 80.7153 36.4495 80.9837 37.3733 80.9896C37.6426 80.9895 37.9114 80.9651 38.1764 80.9169C38.8077 80.8214 39.4132 80.5996 39.9568 80.2648C40.5004 79.9299 40.9709 79.4889 41.3402 78.9681L42.2991 77.6388L46.941 80.3077C47.7441 80.7602 48.65 80.9986 49.5718 81C50.2934 80.9971 51.0068 80.8467 51.6682 80.558C52.3295 80.2693 52.9248 79.8484 53.4176 79.3211C53.9637 78.7019 54.3489 77.9577 54.5391 77.1542C55.4984 77.4585 56.5157 77.5332 57.5091 77.3723C58.32 77.2418 59.0971 76.9523 59.7957 76.5205C60.4944 76.0886 61.1007 75.5228 61.5799 74.8558C62.2155 73.9652 62.6102 72.9254 62.7256 71.8373C62.7782 71.3593 62.77 70.8767 62.7014 70.4007C63.5579 70.3649 64.3972 70.1491 65.1648 69.7674C65.9324 69.3857 66.611 68.8467 67.1564 68.1854C68.0904 67.0644 68.5991 65.6498 68.593 64.1907C68.9507 64.1908 69.3081 64.1665 69.6626 64.118C70.3194 64.0133 70.9486 63.7784 71.5133 63.4271C72.078 63.0758 72.5668 62.6152 72.951 62.0723C73.6092 61.1441 74.0202 60.0636 74.1453 58.9327C74.1453 58.8461 74.1453 58.7596 74.1453 58.6765C74.4499 58.2646 74.7476 57.8319 75.0314 57.3992C76.7239 54.6623 79.0481 52.3712 81.8091 50.7184L82.1138 51.4107C82.2694 51.7563 82.556 52.0259 82.9104 52.1603C83.2648 52.2947 83.6581 52.2828 84.0038 52.1273L95.2261 47.0907C95.3995 47.0143 95.556 46.9042 95.6865 46.7668C95.817 46.6294 95.9189 46.4673 95.9862 46.2902C96.0536 46.113 96.085 45.9243 96.0787 45.7348C96.0724 45.5454 96.0285 45.3592 95.9495 45.1869ZM19.4044 23.8707L26.1717 28.7411L12.3429 47.9284L11.9967 48.4373L5.20864 43.5669L19.4044 23.8707ZM20.9379 64.2877L21.426 63.6196L23.2017 61.1965C23.3208 61.0321 23.4735 60.895 23.6497 60.7942C23.8258 60.6934 24.0215 60.6313 24.2235 60.612C24.4255 60.5926 24.6294 60.6166 24.8215 60.6821C25.0135 60.7477 25.1895 60.8534 25.3375 60.9923C25.4908 61.1448 25.6083 61.3296 25.6813 61.5331C25.7544 61.7367 25.7812 61.954 25.7598 62.1692C25.7367 62.4104 25.6521 62.6416 25.5141 62.8407L23.2121 66.0357C22.9828 66.3237 22.6517 66.5126 22.2871 66.5634C21.9225 66.6143 21.5523 66.5233 21.2529 66.3092C20.9476 66.0795 20.7439 65.7398 20.6851 65.3624C20.6263 64.9849 20.717 64.5993 20.9379 64.2877ZM25.5798 71.0827C25.2698 70.8632 25.0593 70.5298 24.9944 70.1555C24.9295 69.7812 25.0155 69.3964 25.2337 69.0854L28.2798 64.8554H28.3006L30.2737 62.1277C30.3808 61.9733 30.5178 61.842 30.6765 61.7416C30.8353 61.6411 31.0126 61.5734 31.1979 61.5427C31.3841 61.5081 31.5753 61.512 31.7599 61.5543C31.9445 61.5966 32.1184 61.6763 32.271 61.7884C32.4482 61.9173 32.5934 62.0851 32.6954 62.2789C32.7975 62.4728 32.8536 62.6875 32.8594 62.9065C32.8594 62.9619 32.8594 63.0207 32.8594 63.0796C32.8368 63.2742 32.7731 63.4618 32.6725 63.63C32.6448 63.668 32.6171 63.6992 32.5894 63.7338L27.5598 70.7157C27.5356 70.7504 27.5148 70.785 27.4941 70.8196C27.2661 71.1011 26.9393 71.285 26.5804 71.3339C26.2215 71.3828 25.8575 71.293 25.5625 71.0827H25.5798ZM30.696 74.7346C30.5347 74.6311 30.3966 74.4951 30.2905 74.3354C30.1845 74.1757 30.1127 73.9958 30.0798 73.8069C30.0206 73.4749 30.0846 73.1328 30.2598 72.8446C30.2875 72.81 30.3187 72.7754 30.3464 72.7373L35.376 65.7727C35.4198 65.7112 35.4684 65.6533 35.5214 65.5996C35.5763 65.5497 35.6354 65.5046 35.6979 65.4646C35.729 65.443 35.7613 65.4233 35.7948 65.4057C35.8426 65.3769 35.8924 65.3515 35.9437 65.3296L35.9956 65.3088C36.0799 65.2773 36.1668 65.253 36.2552 65.2361C36.3444 65.2209 36.4348 65.2139 36.5252 65.2154H36.5702C36.764 65.225 36.9538 65.2743 37.1278 65.3601C37.3018 65.446 37.4563 65.5666 37.5818 65.7145C37.7074 65.8624 37.8013 66.0345 37.8577 66.2202C37.9141 66.4058 37.9319 66.601 37.9098 66.7938C37.8836 67.0446 37.7903 67.2838 37.6398 67.4861L35.8606 69.9473C35.7948 70.0269 35.7291 70.1031 35.6668 70.1861L33.4271 73.3015C33.3357 73.4271 33.2514 73.5577 33.1744 73.6927L32.6483 74.4196C32.4247 74.7169 32.0944 74.9159 31.7271 74.9747C31.3597 75.0334 30.9839 74.9474 30.6787 74.7346H30.696ZM37.6571 77.5592C37.3777 77.606 37.0907 77.5691 36.8322 77.4532C36.5737 77.3373 36.3553 77.1475 36.2043 76.9078C36.0534 76.6681 35.9767 76.389 35.9839 76.1058C35.9911 75.8226 36.0819 75.5479 36.2448 75.3161L38.4845 72.2007C38.7067 71.8935 39.0391 71.6839 39.4122 71.6158C39.5013 71.6002 39.5917 71.5933 39.6822 71.595H39.7514C39.8129 71.5985 39.8741 71.6054 39.9348 71.6158L40.0075 71.6331C40.1773 71.6789 40.3377 71.7538 40.4818 71.8546C40.6858 72.0027 40.8473 72.2019 40.95 72.4322C41.0527 72.6625 41.093 72.9157 41.0668 73.1665C41.0387 73.4163 40.9469 73.6547 40.8002 73.8588L39.7029 75.3923L38.5814 76.9535C38.4742 77.1134 38.3353 77.2497 38.1734 77.3539C38.0114 77.4581 37.8298 77.528 37.6398 77.5592H37.6571ZM70.6976 58.59C70.6488 59.1267 70.455 59.64 70.1368 60.075C69.8768 60.4222 69.4944 60.6573 69.0672 60.7327C68.855 60.7691 68.6376 60.7621 68.4282 60.7121C68.2187 60.6622 68.0216 60.5702 67.8487 60.4419L66.1803 59.2442C66.111 59.1711 66.0358 59.1039 65.9553 59.0434L62.2306 56.3642C61.8625 56.1296 61.4186 56.0446 60.9899 56.1267C60.5611 56.2089 60.18 56.4519 59.9247 56.8059C59.6693 57.16 59.559 57.5983 59.6164 58.031C59.6738 58.4638 59.8945 58.8582 60.2333 59.1334L63.9545 61.8092L63.9372 61.8369C64.2569 62.0615 64.5259 62.3508 64.7268 62.6859C64.9277 63.0209 65.0561 63.3945 65.1037 63.7823C65.1542 64.172 65.124 64.5679 65.0151 64.9454C64.9061 65.323 64.7207 65.674 64.4703 65.9769C63.9748 66.5287 63.2918 66.8765 62.5541 66.9527C61.8164 67.0288 61.0768 66.8278 60.4791 66.3888L60.3753 66.3127C60.2968 66.2235 60.2085 66.1433 60.1122 66.0738L55.5118 62.7611C55.1437 62.5265 54.6998 62.4416 54.271 62.5237C53.8423 62.6058 53.4612 62.8488 53.2058 63.2028C52.9505 63.5569 52.8402 63.9952 52.8976 64.4279C52.955 64.8607 53.1757 65.2551 53.5145 65.5304L58.1183 68.8534L58.146 68.8811C58.5418 69.1823 58.8544 69.5793 59.0542 70.0348C59.2541 70.4902 59.3346 70.989 59.2883 71.4842C59.2397 71.9801 59.0606 72.4543 58.7692 72.8585C58.4779 73.2627 58.0847 73.5826 57.6296 73.7855C57.1745 73.9884 56.6738 74.0672 56.1783 74.0138C55.6829 73.9604 55.2105 73.7768 54.8091 73.4815L52.5695 71.8511L48.2114 68.7081C48.0307 68.5612 47.8219 68.4529 47.5978 68.3896C47.3738 68.3263 47.1392 68.3095 46.9083 68.3401C46.6775 68.3707 46.4554 68.4481 46.2556 68.5676C46.0558 68.6871 45.8824 68.8461 45.7462 69.035C45.61 69.2238 45.5138 69.4384 45.4635 69.6658C45.4132 69.8931 45.4099 70.1283 45.4537 70.357C45.4975 70.5856 45.5875 70.803 45.7183 70.9956C45.849 71.1882 46.0177 71.3522 46.2141 71.4773L50.5722 74.6169C50.7557 74.7514 50.909 74.9229 51.0223 75.1202C51.1355 75.3175 51.2063 75.5364 51.2299 75.7627C51.2656 75.9935 51.249 76.2293 51.1813 76.4528C51.1136 76.6763 50.9965 76.8817 50.8387 77.0538C50.5631 77.3404 50.1972 77.5233 49.8026 77.5719C49.4079 77.6204 49.0086 77.5316 48.6718 77.3204L44.1925 74.7415C44.2576 74.5715 44.3097 74.3967 44.3483 74.2188C44.4087 73.9818 44.455 73.7414 44.4868 73.4988C44.5991 72.3768 44.318 71.2506 43.6916 70.3129C43.0652 69.3752 42.1325 68.6843 41.0529 68.3584C41.2125 67.9444 41.3184 67.5117 41.3679 67.0707C41.4497 66.2226 41.3088 65.3678 40.9591 64.5907C40.6094 63.8137 40.0631 63.1413 39.3741 62.64C38.4408 61.9701 37.2999 61.6536 36.1548 61.7469C35.8607 60.5683 35.1346 59.5431 34.1204 58.8744C33.1062 58.2058 31.8779 57.9424 30.6787 58.1365C29.8241 58.2638 29.0207 58.623 28.356 59.175L28.3179 59.2061C28.007 58.7584 27.6204 58.3684 27.1756 58.0534C26.6621 57.6782 26.0789 57.4093 25.4601 57.2625C24.8413 57.1157 24.1994 57.0939 23.5721 57.1984C23.1389 57.2741 22.7175 57.4068 22.319 57.593C20.9377 54.1683 18.7785 51.1119 16.0121 48.6657L27.5737 32.6145C29.9057 33.9943 32.4681 34.9407 35.1371 35.408L33.6764 49.7976C33.6213 50.311 33.6684 50.8302 33.815 51.3252C33.9615 51.8203 34.2047 52.2814 34.5303 52.6821C34.856 53.0827 35.2577 53.4149 35.7124 53.6595C36.1671 53.9041 36.6657 54.0563 37.1795 54.1073C38.6643 54.2695 40.1634 53.9774 41.4787 53.2696C41.9314 53.0324 42.3593 52.7506 42.756 52.4284C43.5355 51.8095 44.1824 51.04 44.6581 50.1658C45.1339 49.2916 45.4288 48.3306 45.5252 47.3399L45.9129 43.5876C47.6286 43.51 49.3075 43.0637 50.8352 42.2792C51.0499 42.1719 51.261 42.0542 51.4687 41.933L69.5068 55.8588C69.628 55.9557 69.7283 56.0284 69.7768 56.0769L69.801 56.1011C69.8253 56.1253 69.8737 56.1496 69.898 56.198L69.9464 56.2465C69.9707 56.2465 69.9707 56.2707 69.9949 56.295L70.0434 56.3434L70.116 56.4161L70.1887 56.513C70.213 56.5373 70.2372 56.5892 70.2614 56.6134C70.3185 56.6973 70.3672 56.7866 70.4068 56.88L70.431 56.9284C70.4587 56.9769 70.4587 57.0011 70.483 57.0496C70.5072 57.098 70.5072 57.1465 70.5314 57.195C70.5557 57.2434 70.5557 57.2953 70.5799 57.3438L70.6283 57.4892C70.662 57.6024 70.6864 57.7182 70.701 57.8353V57.8838C70.7229 57.9387 70.7313 57.9981 70.7253 58.0569V58.2023C70.7383 58.3332 70.7229 58.4655 70.6803 58.59H70.6976ZM80.4107 47.5857C77.4571 49.2958 74.9116 51.6287 72.951 54.4223V54.4015C72.9026 54.3288 72.8299 54.2561 72.7814 54.1834C72.733 54.1107 72.6118 53.9896 72.5114 53.8926L72.2691 53.6469C72.0848 53.4654 71.8894 53.2955 71.6841 53.138L51.6072 37.6511L50.5687 38.4299C48.8515 39.7352 46.7013 40.3368 44.556 40.1122L42.8495 39.9392L42.1572 46.9765C42.038 48.0709 41.4965 49.0756 40.6479 49.7769C39.7927 50.4677 38.6986 50.7913 37.6052 50.6769C37.5376 50.6722 37.4717 50.6538 37.4114 50.623C37.3511 50.5921 37.2977 50.5493 37.2543 50.4973C37.211 50.4452 37.1786 50.3849 37.1592 50.32C37.1398 50.2551 37.1337 50.1869 37.1414 50.1196L38.3598 38.1634L47.1002 33.9022H47.0275L49.4506 32.7011L49.5995 32.6284C50.1978 32.2714 50.8149 31.9467 51.4479 31.6557C52.7471 31.0525 54.1243 30.6342 55.5395 30.413C57.3045 30.1222 59.1052 30.1222 60.8703 30.413C64.6897 31.0793 68.6149 30.7867 72.2934 29.5615L73.8891 33.1061L80.4107 47.5857ZM84.4261 48.1949L74.4672 26.0618L82.0826 22.6557L92.0415 44.7853L84.4261 48.1949Z" stroke="#77C5D5" mask="url(#path-2-outside-1_1539_15477)"/>
</svg>
