<svg width="96" height="96" viewBox="0 0 96 96" fill="none" xmlns="http://www.w3.org/2000/svg">
<rect width="96" height="96" fill="white"/>
<path d="M76.5 85H71V79.75C70.9957 76.1046 69.5457 72.6097 66.968 70.032C64.3903 67.4543 60.8954 66.0043 57.25 66H40.75C37.1046 66.0043 33.6097 67.4543 31.032 70.032C28.4543 72.6097 27.0043 76.1046 27 79.75V85H21.5V79.75C21.506 74.6464 23.536 69.7536 27.1448 66.1448C30.7536 62.536 35.6464 60.506 40.75 60.5H57.25C62.3536 60.506 67.2464 62.536 70.8552 66.1448C74.464 69.7536 76.494 74.6464 76.5 79.75V85Z" fill="#77C5D5"/>
<path d="M18.75 22C18.0207 22 17.3212 22.2897 16.8055 22.8055C16.2897 23.3212 16 24.0207 16 24.75V49.5H21.5V24.75C21.5 24.0207 21.2103 23.3212 20.6945 22.8055C20.1788 22.2897 19.4793 22 18.75 22Z" fill="#77C5D5"/>
<path d="M16 11V16.5H29.75V35.75C29.75 40.8554 31.7781 45.7517 35.3882 49.3618C38.9983 52.9719 43.8946 55 49 55C54.1054 55 59.0017 52.9719 62.6118 49.3618C66.2219 45.7517 68.25 40.8554 68.25 35.75V16.5H82V11H16ZM35.25 16.5H62.75V24.75H35.25V16.5ZM49 49.5C45.3533 49.5 41.8559 48.0513 39.2773 45.4727C36.6987 42.8941 35.25 39.3967 35.25 35.75V30.25H62.75V35.75C62.75 39.3967 61.3013 42.8941 58.7227 45.4727C56.1441 48.0513 52.6467 49.5 49 49.5Z" fill="#77C5D5"/>
</svg>
