<svg width="144" height="22" viewBox="0 0 144 22" fill="none" xmlns="http://www.w3.org/2000/svg">
<path d="M39.9214 4.5957H37.2308C36.4173 4.5957 35.7916 4.846 35.4161 5.65945L30.2852 17.3606H33.9144C33.9144 17.3606 34.5401 15.7963 34.6653 15.4209C35.0407 15.4209 38.6074 15.4209 39.108 15.4209C39.2331 15.8589 39.546 17.298 39.546 17.298H42.7998L39.9214 4.5957ZM35.6664 12.7928C35.9793 12.0419 37.043 9.22611 37.043 9.22611C37.043 9.28869 37.3559 8.47524 37.4811 8.03722L37.7314 9.16354C37.7314 9.16354 38.4197 12.2296 38.5448 12.8554H35.6664V12.7928Z" fill="#528CBE"/>
<path d="M30.5351 13.1684C30.5351 15.7965 28.1573 17.5486 24.4655 17.5486C22.9011 17.5486 21.3994 17.2357 20.5859 16.8602L21.0865 13.9819L21.5245 14.1696C22.6508 14.6702 23.4017 14.8579 24.7783 14.8579C25.7795 14.8579 26.8432 14.4825 26.8432 13.6064C26.8432 13.0433 26.4052 12.6679 25.0286 12.0421C23.7146 11.4164 21.9625 10.4152 21.9625 8.6006C21.9625 6.09768 24.4029 4.4082 27.8444 4.4082C29.1585 4.4082 30.2848 4.6585 30.9731 4.97136L30.4725 7.72458L30.2222 7.47429C29.5965 7.22399 28.783 6.9737 27.5941 6.9737C26.2801 7.03627 25.6544 7.59943 25.6544 8.10002C25.6544 8.66317 26.4052 9.10119 27.5941 9.66434C29.5965 10.6029 30.5351 11.6667 30.5351 13.1684Z" fill="#528CBE"/>
<path d="M0 4.721L0.0625731 4.4707H5.44386C6.19474 4.4707 6.75789 4.721 6.94561 5.53445L8.1345 11.166C6.94561 8.16252 4.1924 5.72217 0 4.721Z" fill="#F9B50B"/>
<path d="M15.7057 4.59578L10.2619 17.2981H6.57006L3.44141 6.66069C5.69404 8.09987 7.57123 10.3525 8.25953 11.9168L8.63497 13.2309L12.0139 4.5332H15.7057V4.59578Z" fill="#528CBE"/>
<path d="M17.1451 4.5332H20.5867L18.3966 17.2981H14.9551L17.1451 4.5332Z" fill="#528CBE"/>
<path d="M75.2164 3.09152L66.6172 3.12109L66.8778 18.864L75.4769 18.8344L75.2164 3.09152Z" fill="#FF5F00"/>
<path d="M67.1825 11.0247C67.1293 7.82277 68.5637 4.97768 70.8104 3.13222C69.1145 1.80147 66.9885 1.00125 64.6838 1.00914C59.2239 1.02784 54.8811 5.52574 54.9732 11.0666C55.0653 16.6074 59.5571 21.075 65.017 21.0563C67.3217 21.0484 69.4208 20.2338 71.0723 18.8915C68.765 17.0895 67.2357 14.2267 67.1825 11.0247Z" fill="#EB001B"/>
<path d="M87.1191 10.8888C87.2112 16.4296 82.8683 20.9276 77.4085 20.9463C75.1038 20.9541 72.9777 20.1539 71.2819 18.8232C73.556 16.9776 74.963 14.1326 74.9098 10.9306C74.8566 7.72866 73.3278 4.89372 71.02 3.06386C72.6714 1.72165 74.7706 0.906954 77.0753 0.899061C82.5352 0.880361 87.0275 5.37585 87.1191 10.8888Z" fill="#F79E1B"/>
<path d="M139.208 4.5332H130.643C131.142 7.36067 133.886 10.0218 136.88 10.0218H143.699C143.782 9.77233 143.782 9.35652 143.782 9.10704C143.782 6.61222 141.703 4.5332 139.208 4.5332Z" fill="url(#paint0_linear_513_5688)"/>
<path d="M131.391 10.5215V17.4238H135.549V13.7647H139.208C141.204 13.7647 142.95 12.351 143.532 10.5215H131.391Z" fill="#4FAD50"/>
<path d="M116.754 4.5332V17.34H120.413C120.413 17.34 121.328 17.34 121.827 16.4252C124.322 11.5187 125.07 10.0218 125.07 10.0218H125.569V17.34H129.727V4.5332H126.068C126.068 4.5332 125.153 4.61637 124.654 5.44798C122.575 9.68917 121.411 11.8513 121.411 11.8513H120.912V4.5332H116.754Z" fill="#4FAD50"/>
<path d="M99.291 17.4239V4.61719H103.449C103.449 4.61719 104.613 4.61718 105.279 6.44672C106.942 11.27 107.108 11.9353 107.108 11.9353C107.108 11.9353 107.441 10.7711 108.938 6.44672C109.603 4.61718 110.767 4.61719 110.767 4.61719H114.925V17.4239H110.767V10.5216H110.268L107.94 17.4239H106.11L103.782 10.5216H103.283V17.4239H99.291Z" fill="#4FAD50"/>
<defs>
<linearGradient id="paint0_linear_513_5688" x1="130.628" y1="7.31684" x2="143.753" y2="7.31684" gradientUnits="userSpaceOnUse">
<stop stop-color="#27B1E6"/>
<stop offset="1" stop-color="#148ACA"/>
</linearGradient>
</defs>
</svg>
