<svg width="178" height="190" viewBox="0 0 178 190" fill="none" xmlns="http://www.w3.org/2000/svg">
<path d="M80.0409 143.452L80.6427 143.398C83.5631 143.139 85.7202 140.561 85.4607 137.641L83.876 119.8C83.6166 116.88 81.0389 114.723 78.1186 114.982L77.5167 115.036C74.5964 115.295 72.4393 117.873 72.6987 120.793L74.2835 138.634C74.5429 141.554 77.1205 143.711 80.0409 143.452Z" stroke="#77C5D5" stroke-width="8" stroke-linecap="round" stroke-linejoin="round"/>
<path d="M113.386 125.519L113.988 125.465C116.909 125.206 119.066 122.628 118.806 119.708L117.718 107.456C117.459 104.535 114.881 102.378 111.961 102.638L111.359 102.691C108.438 102.95 106.281 105.528 106.541 108.448L107.629 120.701C107.888 123.621 110.466 125.778 113.386 125.519Z" stroke="#77C5D5" stroke-width="8" stroke-linecap="round" stroke-linejoin="round"/>
<path d="M110.901 89.7294L128.013 104.049C129.09 104.95 129.766 106.242 129.893 107.64C130.02 109.038 129.588 110.43 128.691 111.511L128.289 111.991C127.384 113.064 126.09 113.735 124.691 113.856C123.292 113.977 121.902 113.539 120.825 112.638L117.913 110.201" stroke="#77C5D5" stroke-width="8" stroke-linecap="round" stroke-linejoin="round"/>
<path d="M121.134 83.6879L131.063 91.9973C132.14 92.8984 132.816 94.1895 132.943 95.5879C133.07 96.9863 132.638 98.3782 131.741 99.4587L131.34 99.9386C130.434 101.012 129.14 101.682 127.741 101.804C126.342 101.925 124.952 101.487 123.875 100.586L115.402 93.4956" stroke="#77C5D5" stroke-width="8" stroke-linecap="round" stroke-linejoin="round"/>
<path d="M114.779 78.3701L125.569 87.3996C126.646 88.3008 128.036 88.7386 129.435 88.6172C130.834 88.4958 132.127 87.8251 133.033 86.7519L133.435 86.272C134.304 85.1886 134.715 83.8073 134.578 82.4246C134.441 81.042 133.767 79.7682 132.701 78.8768L114.166 63.3659L94.9066 66.7771" stroke="#77C5D5" stroke-width="8" stroke-linecap="round" stroke-linejoin="round"/>
<path d="M91.2461 139.988L91.8479 139.935C94.7683 139.676 96.9254 137.098 96.666 134.178L94.0826 105.095C93.8232 102.175 91.2455 100.018 88.3252 100.277L87.7233 100.331C84.803 100.59 82.6459 103.168 82.9053 106.088L85.4887 135.17C85.7481 138.091 88.3257 140.248 91.2461 139.988Z" stroke="#77C5D5" stroke-width="8" stroke-linecap="round" stroke-linejoin="round"/>
<path d="M102.091 132.895L102.693 132.841C105.613 132.582 107.77 130.004 107.511 127.084L104.928 98.0012C104.668 95.0808 102.091 92.9237 99.1702 93.1831L98.5684 93.2366C95.6481 93.496 93.491 96.0737 93.7504 98.994L96.3337 128.076C96.5931 130.997 99.1708 133.154 102.091 132.895Z" stroke="#77C5D5" stroke-width="8" stroke-linecap="round" stroke-linejoin="round"/>
<path d="M127.259 12.425L96.1308 50.5506L74.5247 53.0673C71.1737 53.4542 68.0978 55.1087 65.9279 57.6914L59.3358 65.5688C58.0165 67.1139 57.353 69.1133 57.4869 71.1407L59.6176 97.7138C59.6968 98.6411 59.9587 99.5435 60.3881 100.369C60.8175 101.195 61.4061 101.927 62.1198 102.525C62.8335 103.122 63.6583 103.572 64.5468 103.849C65.4352 104.126 66.3697 104.225 67.2964 104.14C68.2131 104.06 69.1051 103.8 69.9211 103.375C70.7372 102.949 71.4613 102.367 72.0518 101.661C72.6424 100.956 73.0878 100.14 73.3626 99.2621C73.6374 98.3839 73.7361 97.4601 73.6531 96.5436L72.3793 81.8586C72.3957 79.9042 73.0068 78.0012 74.1312 76.4026C75.5093 74.2137 77.3527 72.3554 79.5302 70.9596" stroke="#77C5D5" stroke-width="8" stroke-linecap="round" stroke-linejoin="round"/>
<path d="M30.0432 129.525L42.812 114.267C44.0037 112.822 44.8053 111.096 45.1404 109.254C45.4755 107.411 45.333 105.513 44.7264 103.741V103.741C44.1103 101.955 43.9664 100.04 44.3086 98.1816C44.6509 96.3233 45.4676 94.5851 46.6796 93.1355L57.5372 80.1609" stroke="#77C5D5" stroke-width="8" stroke-linecap="round" stroke-linejoin="round"/>
<path d="M45.3328 173.073L74.102 138.849" stroke="#77C5D5" stroke-width="8" stroke-linecap="round" stroke-linejoin="round"/>
<path d="M114.448 78.0931L90.4034 81.2707" stroke="#77C5D5" stroke-width="8" stroke-linecap="round" stroke-linejoin="round"/>
<path d="M138.832 65.6302L130.356 75.7583" stroke="#77C5D5" stroke-width="8" stroke-linecap="round" stroke-linejoin="round"/>
</svg>
