<svg width="120" height="120" viewBox="0 0 128 129" fill="none" xmlns="http://www.w3.org/2000/svg">
<path d="M56.5 109C85.4949 109 109 85.4949 109 56.5C109 27.5051 85.4949 4 56.5 4C27.5051 4 4 27.5051 4 56.5C4 85.4949 27.5051 109 56.5 109Z" stroke="#EEB250" stroke-width="8" stroke-linecap="round" stroke-linejoin="round"/>
<path d="M93.621 93.6282L123.996 124.004" stroke="#EEB250" stroke-width="8" stroke-linecap="round" stroke-linejoin="round"/>
<path d="M60.5069 64.9806V64.0924C60.5069 57.2596 70.4144 54.5265 70.4144 45.1656C70.4144 38.0595 65.0165 32.6616 56.7489 32.6616C49.6428 32.6616 45.3381 36.693 43.4933 42.2958C43.3566 42.7741 43.5616 43.1158 44.0399 43.3207L49.8478 45.3706C50.3261 45.5756 50.736 45.3706 50.941 44.824C51.8976 41.8859 53.7424 40.5193 56.6122 40.5193C59.6869 40.5193 61.8051 42.5008 61.8051 45.5756C61.8051 51.1784 52.1026 54.7998 52.1026 63.5457V64.9806C52.1026 65.4589 52.4442 65.8006 52.9225 65.8006H59.6869C60.1652 65.8006 60.5069 65.4589 60.5069 64.9806ZM56.4755 82.7458C59.7553 82.7458 62.4201 80.081 62.4201 76.733C62.4201 73.4533 59.7553 70.7885 56.4755 70.7885C53.1275 70.7885 50.4627 73.4533 50.4627 76.733C50.4627 80.081 53.1275 82.7458 56.4755 82.7458Z" fill="#EEB250"/>
</svg>
