<svg width="162" height="100" viewBox="0 0 162 100" fill="none" xmlns="http://www.w3.org/2000/svg">
<path d="M140.2 35.2325H36.2416C27.9085 35.2325 21.1076 28.4315 21.1076 20.0984C21.1076 11.7654 27.9085 4.96436 36.2416 4.96436H140.088C140.648 4.96436 140.947 5.63698 140.611 6.04803C137.659 9.4859 130.073 20.5842 140.76 34.1488C141.097 34.5973 140.76 35.2325 140.2 35.2325Z" stroke="#DE6F7E" stroke-width="8" stroke-miterlimit="10"/>
<path d="M156.305 65.5001H52.3473C44.0142 65.5001 37.2132 58.6991 37.2132 50.366C37.2132 42.0329 44.0142 35.2319 52.3473 35.2319H156.193C156.754 35.2319 157.053 35.9046 156.716 36.3156C153.764 39.7535 146.179 50.8518 156.866 64.4164C157.202 64.8648 156.866 65.5001 156.305 65.5001Z" stroke="#DE6F7E" stroke-width="8" stroke-miterlimit="10"/>
<path d="M140.2 95.7325H36.2416C27.9085 95.7325 21.1075 88.9315 21.1075 80.5984C21.1075 72.2654 27.9085 65.4644 36.2416 65.4644H140.088C140.648 65.4644 140.947 66.137 140.611 66.548C137.659 69.9859 130.073 81.0842 140.76 94.6488C141.097 95.0973 140.76 95.7325 140.2 95.7325Z" stroke="#DE6F7E" stroke-width="8" stroke-miterlimit="10"/>
<path d="M61.4124 17.8955H85.7016V50.3684L73.557 43.6421L61.4124 50.3684V17.8955Z" fill="#F8F8F8"/>
<path d="M60.4188 17.8955H84.708V50.3684L72.5634 43.6421L60.4188 50.3684V17.8955Z" stroke="#DE6F7E" stroke-width="8" stroke-miterlimit="10"/>
<path d="M5.78661 95.731H0.667175" stroke="#DE6F7E" stroke-width="8" stroke-miterlimit="10"/>
<path d="M10.9434 95.731H36.2416" stroke="#DE6F7E" stroke-width="8" stroke-miterlimit="10"/>
<path d="M93.9006 80.6345H100.963" stroke="#DE6F7E" stroke-width="8" stroke-miterlimit="10"/>
<path d="M91.8079 17.8958H128.167" stroke="#DE6F7E" stroke-width="8" stroke-miterlimit="10"/>
<path d="M43.0053 17.8958H50.1052" stroke="#DE6F7E" stroke-width="8" stroke-miterlimit="10"/>
<path d="M85.9037 80.6345H72.5633" stroke="#DE6F7E" stroke-width="8" stroke-miterlimit="10"/>
</svg>
