<svg width="109" height="109" viewBox="0 0 109 109" fill="none" xmlns="http://www.w3.org/2000/svg">
<path fill-rule="evenodd" clip-rule="evenodd" d="M102.613 70.8066V9.58008C102.613 4.29762 98.3157 0 93.0332 0H22.5664C17.284 0 12.9863 4.29762 12.9863 9.58008V12.9863H9.58008C4.29762 12.9863 0 17.284 0 22.5664C0 27.8489 4.29762 32.1465 9.58008 32.1465H12.9863V44.9199H9.58008C4.29762 44.9199 0 49.2175 0 54.5C0 59.7825 4.29762 64.0801 9.58008 64.0801H12.9863V76.8535H9.58008C4.29762 76.8535 0 81.1511 0 86.4336C0 91.716 4.29762 96.0137 9.58008 96.0137H12.9863V99.207C12.9863 101.752 13.965 104.177 15.742 106.036C17.569 107.947 19.9928 109 22.5664 109H86.6465C98.9722 109 109 98.8768 109 86.4336C109 80.3571 106.562 74.84 102.613 70.8066ZM9.58008 25.7598C7.81926 25.7598 6.38672 24.3272 6.38672 22.5664C6.38672 20.8056 7.81926 19.373 9.58008 19.373H16.1797C17.9405 19.373 19.373 20.8056 19.373 22.5664C19.373 24.3272 17.9405 25.7598 16.1797 25.7598H9.58008ZM9.58008 57.6934C7.81926 57.6934 6.38672 56.2608 6.38672 54.5C6.38672 52.7392 7.81926 51.3066 9.58008 51.3066H16.1797C17.9405 51.3066 19.373 52.7392 19.373 54.5C19.373 56.2608 17.9405 57.6934 16.1797 57.6934H9.58008ZM16.1797 89.627H9.58008C7.81926 89.627 6.38672 88.1944 6.38672 86.4336C6.38672 84.6728 7.81926 83.2402 9.58008 83.2402H16.1797C17.9405 83.2402 19.373 84.6728 19.373 86.4336C19.373 88.1944 17.9405 89.627 16.1797 89.627ZM22.5664 102.613C20.8654 102.613 19.373 101.021 19.373 99.207V95.4644C23.0899 94.1462 25.7598 90.5967 25.7598 86.4336C25.7598 82.2705 23.0899 78.721 19.373 77.4028V63.5308C23.0899 62.2126 25.7598 58.6631 25.7598 54.5C25.7598 50.3369 23.0899 46.7874 19.373 45.4692V31.5972C23.0899 30.279 25.7598 26.7295 25.7598 22.5664C25.7598 18.4033 23.0899 14.8538 19.373 13.5356V9.58008C19.373 7.81926 20.8056 6.38672 22.5664 6.38672H93.0332C94.794 6.38672 96.2266 7.81926 96.2266 9.58008V66.2399C93.3215 64.8561 90.073 64.0801 86.6465 64.0801C74.3208 64.0801 64.293 74.1079 64.293 86.4336C64.293 92.7735 66.8973 98.51 71.0812 102.613H22.5664ZM86.6465 102.613C77.8424 102.613 70.6797 95.3552 70.6797 86.4336C70.6797 77.6295 77.8424 70.4668 86.6465 70.4668C95.4506 70.4668 102.613 77.6295 102.613 86.4336C102.613 95.3552 95.4506 102.613 86.6465 102.613ZM86.6465 25.7598H67.4863C65.7227 25.7598 64.293 27.1895 64.293 28.9531C64.293 30.7167 65.7227 32.1465 67.4863 32.1465H86.6465C88.4101 32.1465 89.8398 30.7167 89.8398 28.9531C89.8398 27.1895 88.4101 25.7598 86.6465 25.7598ZM67.4863 51.3066H86.6465C88.4101 51.3066 89.8398 52.7364 89.8398 54.5C89.8398 56.2636 88.4101 57.6934 86.6465 57.6934H67.4863C65.7227 57.6934 64.293 56.2636 64.293 54.5C64.293 52.7364 65.7227 51.3066 67.4863 51.3066ZM93.0332 83.2402H89.8398V80.0469C89.8398 78.2833 88.4101 76.8535 86.6465 76.8535C84.8829 76.8535 83.4531 78.2833 83.4531 80.0469V86.4336C83.4531 88.1972 84.8829 89.627 86.6465 89.627H93.0332C94.7968 89.627 96.2266 88.1972 96.2266 86.4336C96.2266 84.67 94.7968 83.2402 93.0332 83.2402ZM52.242 20.3086C53.4889 19.0612 55.5109 19.0612 56.7578 20.3084C58.0049 21.5555 58.0049 23.5773 56.7578 24.8244L43.9844 37.5978C43.361 38.2216 42.5437 38.5333 41.7264 38.5333C40.9092 38.5333 40.0919 38.2216 39.4685 37.5981L32.1838 30.3134C30.9367 29.0663 30.9367 27.0444 32.1838 25.7973C33.4309 24.5502 35.453 24.5502 36.6999 25.7973L41.7264 30.8239L52.242 20.3086ZM56.7578 45.8552C55.5109 44.6081 53.4889 44.6081 52.242 45.8554L41.7264 56.3707L36.6999 51.3442C35.453 50.0971 33.4309 50.0971 32.1838 51.3442C30.9367 52.5913 30.9367 54.6131 32.1838 55.8602L39.4685 63.1449C40.0919 63.7685 40.9092 64.0802 41.7264 64.0802C42.5437 64.0802 43.361 63.7685 43.9844 63.1447L56.7578 50.3713C58.0049 49.1242 58.0049 47.1023 56.7578 45.8552ZM52.242 71.4023C53.4889 70.155 55.5109 70.155 56.7578 71.4021C58.0049 72.6492 58.0049 74.671 56.7578 75.9182L43.9844 88.6916C43.361 89.3154 42.5437 89.627 41.7264 89.627C40.9092 89.627 40.0919 89.3154 39.4685 88.6918L32.1838 81.4071C30.9367 80.16 30.9367 78.1382 32.1838 76.8911C33.4309 75.644 35.453 75.644 36.6999 76.8911L41.7264 81.9176L52.242 71.4023Z" fill="#77C5D5"/>
</svg>
