<svg width="41" height="40" viewBox="0 0 41 40" fill="none" xmlns="http://www.w3.org/2000/svg">
<path d="M19.8844 35H21.1336C27.9148 35 31.306 35 33.412 32.894C35.518 30.788 35.5 27.398 35.5 20.6336V19.3664C35.5 12.6032 35.5 9.21201 33.412 7.10601C31.324 5.00001 27.9148 5 21.1336 5H19.8844C13.102 5 9.712 5.00001 7.606 7.10601C5.5 9.21201 5.5 12.6008 5.5 19.3664V20.6336C5.5 27.398 5.5 30.788 7.606 32.894C9.712 35 13.102 35 19.8844 35Z" stroke="black" stroke-width="2" stroke-linecap="round" stroke-linejoin="round"/>
<path d="M21.5983 26.6277C14.8339 26.6277 10.7287 21.9345 10.5691 14.1357H13.9951C14.1019 19.8645 16.7083 22.2957 18.7063 22.7913V14.1357H21.9907V19.0785C23.9179 18.8649 25.9339 16.6161 26.6131 14.1357H29.8423C29.3251 17.1873 27.1303 19.4361 25.5775 20.3637C27.1303 21.1137 29.6287 23.0769 30.5923 26.6277H27.0415C26.2915 24.2541 24.4531 22.4157 21.9907 22.1661V26.6277H21.5983Z" fill="black"/>
</svg>
