<svg width="24" height="24" viewBox="0 0 24 24" fill="none" xmlns="http://www.w3.org/2000/svg">
<path fill-rule="evenodd" clip-rule="evenodd" d="M4.19113 11.4315C8.84224 9.40513 11.9437 8.06919 13.4955 7.42373C17.9263 5.58082 18.847 5.26068 19.4471 5.25011C19.5791 5.24779 19.8742 5.2805 20.0653 5.43561C20.2267 5.56658 20.2712 5.7435 20.2924 5.86768C20.3137 5.99185 20.3401 6.27473 20.3191 6.49576C20.079 9.01857 19.04 15.1408 18.5115 17.9663C18.2878 19.162 17.8475 19.5628 17.4211 19.6021C16.4946 19.6873 15.7911 18.9898 14.8937 18.4015C13.4895 17.481 12.6962 16.908 11.3331 16.0098C9.75791 14.9718 10.7791 14.4012 11.6768 13.4688C11.9117 13.2248 15.994 9.5117 16.073 9.17486C16.0829 9.13273 16.092 8.9757 15.9988 8.89278C15.9055 8.80986 15.7678 8.83822 15.6684 8.86077C15.5276 8.89273 13.2843 10.3754 8.93864 13.3089C8.3019 13.7461 7.72516 13.9592 7.20842 13.948C6.63875 13.9357 5.54295 13.6259 4.72833 13.3611C3.72916 13.0363 2.93505 12.8646 3.0042 12.313C3.04021 12.0257 3.43586 11.7319 4.19113 11.4315Z" stroke="white" stroke-width="1.5" stroke-linecap="round" stroke-linejoin="round"/>
</svg>
