<svg width="163" height="14" viewBox="0 0 163 14" fill="none" xmlns="http://www.w3.org/2000/svg">
<path d="M8.30469 7.5C8.60938 7.5 8.89062 7.35938 9.21875 7.03125L15.6562 0.664062C15.375 0.398438 14.8672 0.265625 14.1406 0.265625H2.23438C1.60938 0.265625 1.16406 0.390625 0.914062 0.625L7.38281 7.03125C7.70312 7.35938 7.99219 7.5 8.30469 7.5ZM0.28125 11.875L5.52344 6.67188L0.265625 1.48438C0.148438 1.70312 0.0859375 2.07031 0.0859375 2.59375V10.7578C0.0859375 11.2812 0.148438 11.6562 0.28125 11.875ZM16.3125 11.8594C16.4297 11.6406 16.4922 11.2734 16.4922 10.7578V2.59375C16.4922 2.08594 16.4297 1.71875 16.3125 1.50781L11.0781 6.67188L16.3125 11.8594ZM2.44531 13.0781H14.3516C14.9766 13.0781 15.4141 12.9609 15.6641 12.7188L10.3125 7.41406L9.83594 7.89844C9.32812 8.38281 8.84375 8.61719 8.30469 8.61719C7.75781 8.61719 7.28125 8.38281 6.77344 7.89844L6.28906 7.41406L0.945312 12.7109C1.23438 12.9531 1.73438 13.0781 2.44531 13.0781ZM30.5999 0.799999H27.3999C27.3039 0.799999 27.2399 0.863999 27.2399 0.959999V11.84C27.2399 11.936 27.3039 12 27.3999 12H30.6319C32.8879 12 34.0559 10.656 34.0559 8.928C34.0559 7.76 33.4159 6.8 32.4559 6.32C32.3599 6.272 32.3439 6.208 32.4559 6.144C33.2559 5.68 33.8159 4.8 33.8159 3.76C33.8159 2.096 32.6799 0.799999 30.5999 0.799999ZM28.5039 1.936H30.4559C31.8639 1.936 32.5839 2.672 32.5839 3.84C32.5839 5.008 31.8639 5.728 30.4559 5.728H28.5039C28.4559 5.728 28.4239 5.696 28.4239 5.648V2.016C28.4239 1.968 28.4559 1.936 28.5039 1.936ZM28.5039 6.864H30.5199C32.0559 6.864 32.8239 7.632 32.8239 8.864C32.8239 10.096 32.0559 10.864 30.5199 10.864H28.5039C28.4559 10.864 28.4239 10.832 28.4239 10.784V6.944C28.4239 6.896 28.4559 6.864 28.5039 6.864ZM36.2666 12H39.2106C40.7146 12 41.6426 11.2 41.6426 9.984C41.6426 8.96 41.0026 8.384 40.4426 8.192C40.3786 8.176 40.3786 8.144 40.4426 8.112C40.9226 7.856 41.3866 7.232 41.3866 6.464C41.3866 5.328 40.6026 4.576 39.1146 4.576H36.2666C36.1706 4.576 36.1066 4.64 36.1066 4.736V11.84C36.1066 11.936 36.1706 12 36.2666 12ZM37.3546 5.552H39.0346C39.8186 5.552 40.2026 5.936 40.2026 6.656C40.2026 7.312 39.6746 7.76 38.8746 7.76H37.3546C37.3066 7.76 37.2746 7.728 37.2746 7.68V5.632C37.2746 5.584 37.3066 5.552 37.3546 5.552ZM37.3546 8.72H39.0666C39.8826 8.72 40.4746 9.072 40.4746 9.84C40.4746 10.544 39.9466 11.024 39.0666 11.024H37.3546C37.3066 11.024 37.2746 10.992 37.2746 10.944V8.8C37.2746 8.752 37.3066 8.72 37.3546 8.72ZM46.8703 12.176C48.0063 12.176 49.0143 11.696 49.7663 10.912C49.8303 10.848 49.8303 10.768 49.7663 10.704L49.2383 10.128C49.1583 10.048 49.0783 10.08 48.9663 10.192C48.4543 10.72 47.7503 11.12 46.8703 11.12C45.4463 11.12 44.5023 10.208 44.3263 8.816C44.2943 8.656 44.3583 8.608 44.4703 8.608H50.1183C50.2143 8.608 50.2623 8.56 50.2783 8.48C50.2943 8.352 50.2943 8.224 50.2943 8.112C50.2943 5.968 48.7583 4.416 46.7103 4.416C44.6623 4.416 43.0943 5.936 43.0943 8.288C43.0943 10.64 44.6623 12.176 46.8703 12.176ZM48.9023 7.68H44.5023C44.3583 7.68 44.3263 7.632 44.3583 7.504C44.5503 6.32 45.4943 5.472 46.7103 5.472C47.9423 5.472 48.8383 6.288 49.0463 7.488C49.0783 7.632 49.0303 7.68 48.9023 7.68ZM52.1405 13.808V12.08C52.1405 12.032 52.1725 12 52.2205 12H57.7245C57.7725 12 57.8045 12.032 57.8045 12.08V13.808C57.8045 13.904 57.8685 13.968 57.9645 13.968H58.7485C58.8445 13.968 58.9085 13.904 58.9085 13.808V11.12C58.9085 11.024 58.8445 10.96 58.7485 10.96H57.9805C57.9325 10.96 57.9005 10.928 57.9005 10.88V4.736C57.9005 4.64 57.8365 4.576 57.7405 4.576H52.8765C52.7805 4.576 52.7165 4.64 52.7165 4.736V7.216C52.7165 9.68 52.3165 10.448 51.9165 10.896C51.8685 10.944 51.8045 10.96 51.7405 10.96H51.1965C51.1005 10.96 51.0365 11.024 51.0365 11.12V13.808C51.0365 13.904 51.1005 13.968 51.1965 13.968H51.9805C52.0765 13.968 52.1405 13.904 52.1405 13.808ZM56.6685 10.96H53.3245C53.1965 10.96 53.1965 10.912 53.2445 10.816C53.5165 10.4 53.8205 9.552 53.8205 7.504V5.68C53.8205 5.632 53.8525 5.6 53.9005 5.6H56.6685C56.7165 5.6 56.7485 5.632 56.7485 5.68V10.88C56.7485 10.928 56.7165 10.96 56.6685 10.96ZM60.8448 12H61.7568C61.9008 12 61.9648 11.952 62.0288 11.84L65.1968 6.528C65.2288 6.464 65.2928 6.48 65.2928 6.56V11.84C65.2928 11.936 65.3568 12 65.4528 12H66.2688C66.3648 12 66.4288 11.936 66.4288 11.84V4.736C66.4288 4.64 66.3648 4.576 66.2688 4.576H65.3728C65.2608 4.576 65.1648 4.592 65.0688 4.752L61.9168 10.048C61.8848 10.112 61.8207 10.096 61.8207 10.016V4.736C61.8207 4.64 61.7568 4.576 61.6608 4.576H60.8448C60.7488 4.576 60.6848 4.64 60.6848 4.736V11.84C60.6848 11.936 60.7488 12 60.8448 12ZM71.4963 11.84V5.712C71.4963 5.664 71.5283 5.632 71.5763 5.632H73.7843C73.8803 5.632 73.9443 5.568 73.9443 5.472V4.736C73.9443 4.64 73.8803 4.576 73.7843 4.576H68.0403C67.9443 4.576 67.8803 4.64 67.8803 4.736V5.472C67.8803 5.568 67.9443 5.632 68.0403 5.632H70.2643C70.3123 5.632 70.3443 5.664 70.3443 5.712V11.84C70.3443 11.936 70.4083 12 70.5043 12H71.3363C71.4323 12 71.4963 11.936 71.4963 11.84ZM78.4328 12.176C79.5688 12.176 80.5768 11.696 81.3288 10.912C81.3928 10.848 81.3928 10.768 81.3288 10.704L80.8008 10.128C80.7208 10.048 80.6408 10.08 80.5288 10.192C80.0168 10.72 79.3128 11.12 78.4328 11.12C77.0088 11.12 76.0648 10.208 75.8888 8.816C75.8568 8.656 75.9208 8.608 76.0328 8.608H81.6808C81.7768 8.608 81.8248 8.56 81.8408 8.48C81.8568 8.352 81.8568 8.224 81.8568 8.112C81.8568 5.968 80.3208 4.416 78.2728 4.416C76.2248 4.416 74.6568 5.936 74.6568 8.288C74.6568 10.64 76.2248 12.176 78.4328 12.176ZM80.4648 7.68H76.0648C75.9208 7.68 75.8888 7.632 75.9208 7.504C76.1128 6.32 77.0568 5.472 78.2728 5.472C79.5048 5.472 80.4008 6.288 80.6088 7.488C80.6408 7.632 80.5928 7.68 80.4648 7.68ZM87.9541 12H90.8981C92.4021 12 93.3301 11.2 93.3301 9.984C93.3301 8.96 92.6901 8.384 92.1301 8.192C92.0661 8.176 92.0661 8.144 92.1301 8.112C92.6101 7.856 93.0741 7.232 93.0741 6.464C93.0741 5.328 92.2901 4.576 90.8021 4.576H87.9541C87.8581 4.576 87.7941 4.64 87.7941 4.736V11.84C87.7941 11.936 87.8581 12 87.9541 12ZM89.0421 5.552H90.7221C91.5061 5.552 91.8901 5.936 91.8901 6.656C91.8901 7.312 91.3621 7.76 90.5621 7.76H89.0421C88.9941 7.76 88.9621 7.728 88.9621 7.68V5.632C88.9621 5.584 88.9941 5.552 89.0421 5.552ZM89.0421 8.72H90.7541C91.5701 8.72 92.1621 9.072 92.1621 9.84C92.1621 10.544 91.6341 11.024 90.7541 11.024H89.0421C88.9941 11.024 88.9621 10.992 88.9621 10.944V8.8C88.9621 8.752 88.9941 8.72 89.0421 8.72ZM98.4298 12.16C99.4858 12.16 100.254 11.76 100.846 11.168C100.894 11.12 100.942 11.152 100.942 11.216V11.84C100.942 11.936 101.006 12 101.102 12H101.886C101.982 12 102.046 11.936 102.046 11.84V4.736C102.046 4.64 101.982 4.576 101.886 4.576H101.102C101.006 4.576 100.942 4.64 100.942 4.736V5.36C100.942 5.424 100.894 5.456 100.846 5.408C100.302 4.768 99.4858 4.416 98.4298 4.416C96.3658 4.416 94.7818 5.968 94.7818 8.288C94.7818 10.608 96.3658 12.16 98.4298 12.16ZM98.6058 11.104C97.0218 11.104 95.9658 9.968 95.9658 8.288C95.9658 6.608 97.0218 5.472 98.6058 5.472C99.6138 5.472 100.414 5.952 100.814 6.656C100.862 6.752 100.878 6.816 100.878 6.944V9.632C100.878 9.76 100.862 9.824 100.814 9.92C100.446 10.64 99.6138 11.104 98.6058 11.104ZM112.961 10.944H110.001C109.953 10.944 109.921 10.912 109.921 10.864V4.736C109.921 4.64 109.857 4.576 109.761 4.576H108.929C108.833 4.576 108.769 4.64 108.769 4.736V10.864C108.769 10.912 108.737 10.944 108.689 10.944H105.745C105.697 10.944 105.665 10.912 105.665 10.864V4.736C105.665 4.64 105.601 4.576 105.505 4.576H104.657C104.561 4.576 104.497 4.64 104.497 4.736V11.84C104.497 11.936 104.561 12 104.657 12H114.033C114.129 12 114.193 11.936 114.193 11.84V4.736C114.193 4.64 114.129 4.576 114.033 4.576H113.201C113.105 4.576 113.041 4.64 113.041 4.736V10.864C113.041 10.912 113.009 10.944 112.961 10.944ZM123.964 12.176C125.1 12.176 126.108 11.696 126.86 10.912C126.924 10.848 126.924 10.768 126.86 10.704L126.332 10.128C126.252 10.048 126.172 10.08 126.06 10.192C125.548 10.72 124.844 11.12 123.964 11.12C122.54 11.12 121.596 10.208 121.42 8.816C121.388 8.656 121.452 8.608 121.564 8.608H127.212C127.308 8.608 127.356 8.56 127.372 8.48C127.388 8.352 127.388 8.224 127.388 8.112C127.388 5.968 125.852 4.416 123.804 4.416C121.756 4.416 120.188 5.936 120.188 8.288C120.188 10.64 121.756 12.176 123.964 12.176ZM125.996 7.68H121.596C121.452 7.68 121.42 7.632 121.452 7.504C121.644 6.32 122.588 5.472 123.804 5.472C125.036 5.472 125.932 6.288 126.14 7.488C126.172 7.632 126.124 7.68 125.996 7.68ZM132.656 7.728V7.04C132.656 6.944 132.592 6.88 132.496 6.88H129.248C129.152 6.88 129.088 6.944 129.088 7.04V7.728C129.088 7.824 129.152 7.888 129.248 7.888H132.496C132.592 7.888 132.656 7.824 132.656 7.728ZM136.118 11.84V6.864C136.118 6.72 136.134 6.64 136.198 6.512C136.582 5.84 137.174 5.456 137.878 5.456C138.87 5.456 139.43 6.016 139.43 7.056V11.84C139.43 11.936 139.494 12 139.59 12H140.438C140.534 12 140.598 11.936 140.598 11.84V6.864C140.598 6.736 140.63 6.592 140.694 6.48C141.078 5.824 141.606 5.456 142.342 5.456C143.334 5.456 143.91 6 143.91 7.056V11.84C143.91 11.936 143.974 12 144.07 12H144.918C145.014 12 145.078 11.936 145.078 11.84V6.864C145.078 5.504 144.23 4.416 142.598 4.416C141.59 4.416 140.982 4.896 140.454 5.552C140.39 5.632 140.342 5.632 140.294 5.552C139.894 4.896 139.174 4.416 138.102 4.416C137.254 4.416 136.63 4.752 136.166 5.296C136.102 5.376 136.038 5.344 136.038 5.264V4.736C136.038 4.64 135.974 4.576 135.878 4.576H135.11C135.014 4.576 134.95 4.64 134.95 4.736V11.84C134.95 11.936 135.014 12 135.11 12H135.958C136.054 12 136.118 11.936 136.118 11.84ZM150.539 12.16C151.595 12.16 152.363 11.76 152.955 11.168C153.003 11.12 153.051 11.152 153.051 11.216V11.84C153.051 11.936 153.115 12 153.211 12H153.995C154.091 12 154.155 11.936 154.155 11.84V4.736C154.155 4.64 154.091 4.576 153.995 4.576H153.211C153.115 4.576 153.051 4.64 153.051 4.736V5.36C153.051 5.424 153.003 5.456 152.955 5.408C152.411 4.768 151.595 4.416 150.539 4.416C148.475 4.416 146.891 5.968 146.891 8.288C146.891 10.608 148.475 12.16 150.539 12.16ZM150.715 11.104C149.131 11.104 148.075 9.968 148.075 8.288C148.075 6.608 149.131 5.472 150.715 5.472C151.723 5.472 152.523 5.952 152.923 6.656C152.971 6.752 152.987 6.816 152.987 6.944V9.632C152.987 9.76 152.971 9.824 152.923 9.92C152.555 10.64 151.723 11.104 150.715 11.104ZM157.215 2.848C157.663 2.848 158.063 2.432 158.063 1.968C158.063 1.504 157.663 1.104 157.215 1.104C156.735 1.104 156.335 1.504 156.335 1.968C156.335 2.432 156.735 2.848 157.215 2.848ZM156.767 12H157.615C157.711 12 157.775 11.936 157.775 11.84V4.736C157.775 4.64 157.711 4.576 157.615 4.576H156.767C156.671 4.576 156.607 4.64 156.607 4.736V11.84C156.607 11.936 156.671 12 156.767 12ZM162.024 11.024H161.8C161.448 11.024 161.32 10.8 161.32 10.448V0.575999C161.32 0.48 161.256 0.415999 161.16 0.415999H160.312C160.216 0.415999 160.152 0.48 160.152 0.575999V10.592C160.152 11.616 160.76 12.064 161.736 12.064H162.024C162.12 12.064 162.184 12 162.184 11.904V11.184C162.184 11.088 162.12 11.024 162.024 11.024Z" fill="#999999"/>
</svg>
